<?xml version="1.0" encoding="utf-8"?>
<!DOCTYPE svg
  PUBLIC '-//W3C//DTD SVG 1.0//EN'
  'http://www.w3.org/TR/2001/REC-SVG-20010904/DTD/svg10.dtd'>
<svg fill-rule="evenodd" height="400.0" preserveAspectRatio="xMinYMin meet" version="1.0" viewBox="0 0 300 400" width="300.0" xmlns="http://www.w3.org/2000/svg" xmlns:xlink="http://www.w3.org/1999/xlink">
	<title>...</title>
	<desc>...</desc>
	<clipPath id="clip">
		<rect height="400.0" width="300.0" x="0" y="0"/>
	</clipPath>
	<g id="group" style="clip-path: url(#clip)" transform="scale(1,-1) translate(0,-400)">
		<g transform="">
			<g transform=" matrix(1,0,0,-1,0,400)">
				<g transform=" matrix(1,0,0,1,0,-652.36216)">
					<rect height="400.77808000000005" rx="40.0" ry="40.0" style="stroke: none; stroke-linecap: round; stroke-width: 10.0; fill: rgb(96%,94%,92%); fill-rule: evenodd;" width="300.05896" x="0.0" y="652.28351"/>
					<g transform=" matrix(1,0,0,1,-0,-0.000001)">
						<g transform="">
							<path d="M -4.768783 775.07096 C -9.650184 741.99485 -16.84552 674.23676 -1.278872 652.0641 C 18.998297 625.94378 233.50094 631.63117 263.31435 653.90999 C 276.21398 662.64856 70.349579 663.12124 47.099353 691.74479 C 24.390958 719.11242 0.650608 818.18718 -4.768783 775.07096 Z " style="stroke: none; stroke-linecap: butt; stroke-width: 1; fill: rgb(100%,100%,100%); fill-rule: evenodd;"/>
						</g>
					</g>
					<g transform=" matrix(-1,0,0,-1,451.93806,1977.887)">
						<g transform="">
							<path d="M 151.73588 1025.0177 C 148.40905 1015.7039 141.48745 956.56381 157.05409 934.39115 C 177.33126 908.27083 376.48967 917.93319 388.60915 924.45931 C 399.68348 929.77633 210.00549 924.51821 183.75789 959.32577 C 162.1644 989.32637 157.25703 1041.5042 151.73588 1025.0177 Z " style="stroke: none; stroke-linecap: butt; stroke-width: 1; fill: rgb(0%,0%,0%); fill-rule: evenodd; fill-opacity: 0.19607843;"/>
						</g>
					</g>
				</g>
			</g>
		</g>
		<g transform=" matrix(0.8,0,0,0.8,30,40)">
			<g transform=" matrix(1,0,0,-1,0,400)">
				<g transform=" matrix(1,0,0,1,0,-652.36216)">
					<g transform=" matrix(0.764105,0,0,0.764105,-168.70793,381.16585)">
						<g transform=" matrix(1.308721,0,0,1.308721,219.31497,352.30291)">
							<g transform="">
								<path d="M 233.73438 85.414062 C 171.71639 102.09595 147.46277 107.32338 67.576172 128.26758 C 62.150952 128.17108 51.041676 127.34002 45.904502 118.75977 C 41.146306 112.84082 36.201398 119.44089 36.466887 125.50195 C 36.831945 133.83604 37.065254 140.79382 40.947471 144.70312 C 62.611648 164.65347 70.025536 186.0253 73.169922 210.44336 C 72.839072 215.6545 68.547162 220.44619 76.363281 220.0918 C 84.232414 219.50821 160.62697 213.46235 216.77734 218.39844 C 221.41912 218.87503 222.23676 214.71706 221.92773 213.00781 C 219.28524 198.39191 246.2662 151.64575 255.30273 132.5332 C 257.16517 128.5941 267.12077 128.09886 269.23633 127.59375 C 269.09696 127.62855 272.0984 125.86931 270.33203 123.67969 C 259.613 110.39214 237.46714 84.235655 233.73438 85.414062 Z M 212.45703 120.31641 C 221.5436 120.38511 225.87713 122.74737 222.28711 128.66602 C 211.17247 150.97611 198.04375 194.60226 194.07227 193.92969 C 132.76607 193.51016 106.14532 197.99139 100.05664 195.97656 C 97.857506 195.1612 94.644806 171.07722 80.723765 153.7968 C 78.534408 151.07911 79.43733 149.10148 82.977671 148.24016 C 103.6066 143.62386 182.77423 120.09189 212.45703 120.31641 Z " style="stroke: none; stroke-linecap: butt; stroke-width: 1; fill: rgb(72%,23%,23%); fill-rule: evenodd;"/>
							</g>
						</g>
						<g transform="">
							<path d="M 367.90999 395.10475 C 368.28548 399.26587 367.73431 407.51206 374.20078 409.89052 C 379.81698 410.47611 393.95356 421.33658 391.15516 438.46148 C 391.24796 626.3886 394.47828 638.62573 391.46826 783.91943 C 385.84212 836.49624 398.20229 864.38991 402.29025 870.88456 C 405.2257 877.4748 408.41673 876.40153 409.89443 872.32315 C 422.87306 836.50279 428.55534 859.76897 424.59639 769.4211 C 424.01553 619.28202 421.70997 453.77416 443.6627 441.61049 C 452.33393 434.64827 463.71765 412.92203 461.01069 407.88294 C 464.11384 402.90808 410.38854 353.8434 405.88523 358.38601 C 398.51705 366.42568 369.23948 380.34631 367.90999 395.10475 Z " style="stroke: none; stroke-linecap: butt; stroke-width: 1; fill: rgb(72%,23%,23%); fill-rule: evenodd;"/>
						</g>
					</g>
				</g>
			</g>
		</g>
	</g>
</svg>
