<?xml version="1.0" encoding="utf-8"?>
<!DOCTYPE svg
  PUBLIC '-//W3C//DTD SVG 1.0//EN'
  'http://www.w3.org/TR/2001/REC-SVG-20010904/DTD/svg10.dtd'>
<svg fill-rule="evenodd" height="400.0" preserveAspectRatio="xMinYMin meet" version="1.0" viewBox="0 0 300 400" width="300.0" xmlns="http://www.w3.org/2000/svg" xmlns:xlink="http://www.w3.org/1999/xlink">
	<title>...</title>
	<desc>...</desc>
	<clipPath id="clip">
		<rect height="400.0" width="300.0" x="0" y="0"/>
	</clipPath>
	<g id="group" style="clip-path: url(#clip)" transform="scale(1,-1) translate(0,-400)">
		<g transform="">
			<g transform=" matrix(1,0,0,-1,0,400)">
				<g transform=" matrix(1,0,0,1,0,-652.36216)">
					<rect height="400.77808000000005" rx="40.0" ry="40.0" style="stroke: none; stroke-linecap: round; stroke-width: 10.0; fill: rgb(96%,94%,92%); fill-rule: evenodd;" width="300.05896" x="0.0" y="652.28351"/>
					<g transform=" matrix(1,0,0,1,-0,-0.000001)">
						<g transform="">
							<path d="M -4.768783 775.07096 C -9.650184 741.99485 -16.84552 674.23676 -1.278872 652.0641 C 18.998297 625.94378 233.50094 631.63117 263.31435 653.90999 C 276.21398 662.64856 70.349579 663.12124 47.099353 691.74479 C 24.390958 719.11242 0.650608 818.18718 -4.768783 775.07096 Z " style="stroke: none; stroke-linecap: butt; stroke-width: 1; fill: rgb(100%,100%,100%); fill-rule: evenodd;"/>
						</g>
					</g>
					<g transform=" matrix(-1,0,0,-1,451.93806,1977.887)">
						<g transform="">
							<path d="M 151.73588 1025.0177 C 148.40905 1015.7039 141.48745 956.56381 157.05409 934.39115 C 177.33126 908.27083 376.48967 917.93319 388.60915 924.45931 C 399.68348 929.77633 210.00549 924.51821 183.75789 959.32577 C 162.1644 989.32637 157.25703 1041.5042 151.73588 1025.0177 Z " style="stroke: none; stroke-linecap: butt; stroke-width: 1; fill: rgb(0%,0%,0%); fill-rule: evenodd; fill-opacity: 0.19607843;"/>
						</g>
					</g>
				</g>
			</g>
		</g>
		<g transform=" matrix(0.8,0,0,0.8,30,40)">
			<g transform=" matrix(1,0,0,-1,0,400)">
				<g transform=" matrix(1,0,0,1,0,-652.36216)">
					<g transform=" matrix(0.711424,0,0,0.711424,-140.4298,448.29298)">
						<g transform="">
							<path d="M 409.81023 440.81379 C 444.43302 454.31577 482.34757 548.27889 510.77654 622.33356 C 512.16782 625.34627 513.01426 628.6143 516.4754 630.40471 C 542.45641 645.06422 572.61063 666.87657 585.17539 677.1482 C 608.61961 693.74858 620.86594 682.82802 614.48087 667.02832 C 609.65695 654.85649 590.90279 626.73833 586.70773 617.74105 C 581.3592 607.76316 567.41774 596.31783 549.42133 582.74233 C 513.56644 556.87761 491.7922 500.25546 427.13383 420.13594 C 423.98162 417.14549 408.12569 434.57899 409.81023 440.81379 Z " style="stroke: none; stroke-linecap: butt; stroke-width: 1; fill: rgb(0%,28%,0%); fill-rule: evenodd;"/>
						</g>
						<g transform="">
							<path d="M 423.61741 432.98337 C 345.23289 543.32483 295.67961 606.33003 219.65107 653.48475 C 198.62883 667.78735 194.23241 655.82587 210.45868 642.87815 C 303.95536 566.74908 324.30081 502.76708 402.51137 418.19825 Z " style="stroke: none; stroke-linecap: butt; stroke-width: 1; fill: rgb(0%,28%,0%); fill-rule: evenodd;"/>
						</g>
						<g transform="">
							<path d="M 401.08262 388.1417 C 370.99822 415.41713 352.95689 447.11211 315.93587 466.12043 C 299.27956 476.5361 298.74656 488.28569 320.02901 485.62236 C 354.77677 480.0519 393.31009 459.06652 421.83981 442.30972 C 445.92344 427.34141 442.93052 352.84253 401.08262 388.1417 Z " style="stroke: none; stroke-linecap: butt; stroke-width: 1; fill: rgb(0%,28%,0%); fill-rule: evenodd;"/>
						</g>
						<g transform="">
							<path d="M 473.08767 378.62869 C 465.06701 405.4989 457.95603 426.3196 441.83522 454.01995 L 460.3656 471.03414 C 486.03906 419.63363 494.84385 394.77549 507.67958 391.00126 C 511.95154 388.68145 509.31264 380.95397 507.11461 376.92791 C 502.50185 368.47887 497.8548 358.62585 492.04836 352.61627 C 479.44964 340.54674 477.26319 367.42835 473.08767 378.62869 Z " style="stroke: none; stroke-linecap: butt; stroke-width: 1; fill: rgb(0%,28%,0%); fill-rule: evenodd;"/>
						</g>
						<g transform="">
							<path d="M 525.86584 454.91235 C 520.32513 448.90233 514.06829 451.01992 509.52347 461.67888 C 505.44295 471.64106 484.1761 498.71654 458.06888 523.89574 C 449.16093 532.97763 457.07231 541.70618 471.12326 531.82372 C 494.63214 509.59921 513.50365 492.3284 527.93165 488.98001 C 534.48925 487.68841 545.96828 491.8959 544.68004 482.96973 C 542.35205 472.234 534.758 463.71406 525.86584 454.91235 Z " style="stroke: none; stroke-linecap: butt; stroke-width: 1; fill: rgb(0%,28%,0%); fill-rule: evenodd;"/>
						</g>
						<g transform="">
							<path d="M 291.14056 495.74433 C 272.15579 477.52046 256.97881 484.16247 276.937 511.39723 C 318.26115 568.30657 343.61172 579.17143 333.60477 600.04905 L 352.77562 600.05505 C 363.33718 588.64793 359.55698 596.03993 351.81798 561.36058 C 349.61197 551.47518 320.72916 536.53512 291.14056 495.74455 Z " style="stroke: none; stroke-linecap: butt; stroke-width: 1; fill: rgb(0%,28%,0%); fill-rule: evenodd;"/>
						</g>
						<g transform="">
							<path d="M 312.31994 554.81732 L 284.98063 580.98937 C 319.66769 578.14645 335.35111 580.5373 370.64689 560.31014 C 395.46498 546.62773 380.00557 534.33219 366.17844 539.06063 C 336.1916 551.68647 338.13541 550.29492 312.31994 554.81732 Z " style="stroke: none; stroke-linecap: butt; stroke-width: 1; fill: rgb(0%,28%,0%); fill-rule: evenodd;"/>
						</g>
						<g transform="">
							<path d="M 278.30827 635.42474 C 270.48302 640.0636 260.62705 631.93451 265.99349 644.22771 C 271.32093 653.52017 282.14775 652.50125 292.71087 648.62865 C 301.84662 645.23952 364.42578 596.82991 404.78846 591.12158 L 406.93167 564.09439 C 341.42364 586.25339 286.02188 630.1364 278.30827 635.42474 Z " style="stroke: none; stroke-linecap: butt; stroke-width: 1; fill: rgb(0%,28%,0%); fill-rule: evenodd;"/>
						</g>
						<g transform="">
							<path d="M 426.86553 485.78155 C 423.67477 482.06577 415.44624 476.53031 411.2296 489.8612 C 410.26934 496.12841 412.76644 502.35526 411.87682 511.98633 C 407.66523 569.86964 394.89755 587.40663 390.69791 611.2558 C 388.76242 623.96776 394.44528 632.8475 403.61575 614.59321 C 410.46748 594.058 418.12859 579.49683 441.49762 519.77443 C 443.05363 509.22787 437.27471 497.4606 426.86553 485.78155 Z " style="stroke: none; stroke-linecap: butt; stroke-width: 1; fill: rgb(0%,28%,0%); fill-rule: evenodd;"/>
						</g>
						<g transform="">
							<path d="M 352.08956 608.30937 L 336.80315 616.38364 C 346.35095 639.08731 323.64665 719.60149 306.67408 718.2943 C 286.27769 716.1687 266.27575 701.20688 251.10696 690.29369 L 244.23666 690.92385 C 261.11732 718.50944 283.43458 750.87069 307.90406 755.32941 C 315.60846 756.54856 330.65119 746.87499 334.6389 740.27098 C 364.21986 679.48354 373.97001 648.52032 367.76734 631.18572 C 364.9247 623.24138 355.05063 617.24528 352.08956 608.30937 Z " style="stroke: none; stroke-linecap: butt; stroke-width: 1; fill: rgb(0%,28%,0%); fill-rule: evenodd;"/>
						</g>
						<g transform="">
							<path d="M 344.58979 659.10347 L 342.48759 640.70815 C 305.43086 653.41431 276.70717 674.44276 247.84651 678.8154 C 236.37001 680.35493 227.68391 676.50914 219.78224 671.18269 C 214.46069 666.92579 211.89375 670.54607 212.96475 676.11015 C 215.95769 687.84241 217.67956 687.55046 225.07533 693.31473 C 231.98924 697.57391 237.54869 697.87136 248.71302 697.10071 C 277.00706 694.88061 313.19407 669.35603 344.58979 659.10347 Z " style="stroke: none; stroke-linecap: butt; stroke-width: 1; fill: rgb(0%,28%,0%); fill-rule: evenodd;"/>
						</g>
						<g transform="">
							<path d="M 404.43319 591.78934 L 395.70243 618.73796 C 427.87351 614.45431 445.57356 612.69195 474.22091 602.19651 C 496.47114 585.73951 484.60351 581.28997 470.82036 579.86355 C 431.43267 583.14695 444.74169 586.66118 404.43319 591.78934 Z " style="stroke: none; stroke-linecap: butt; stroke-width: 1; fill: rgb(0%,28%,0%); fill-rule: evenodd;"/>
						</g>
						<g transform="">
							<path d="M 441.25038 600.19989 L 420.00039 606.18166 C 419.50739 647.43837 420.96807 655.28485 416.65032 665.92871 C 403.53413 690.95722 414.2312 695.56921 352.84505 741.24337 C 344.25195 747.46554 352.13044 759.56783 362.12739 757.68482 C 404.60955 750.58817 441.46791 725.14781 443.93996 715.6336 C 449.72922 687.41519 444.54874 645.40223 441.25038 600.19989 Z " style="stroke: none; stroke-linecap: butt; stroke-width: 1; fill: rgb(0%,28%,0%); fill-rule: evenodd;"/>
						</g>
						<g transform="">
							<path d="M 355.04551 652.39514 L 353.80551 677.09442 C 348.7797 675.45046 453.76101 669.24649 517.37284 673.90569 C 525.7607 673.59015 538.26495 674.07864 536.32821 666.6135 C 522.02598 645.47436 514.22311 643.10505 505.57532 642.09238 C 502.58542 642.35527 496.98926 645.14486 492.96682 644.79437 C 467.56281 646.95297 405.27255 650.98686 355.04551 652.39514 Z " style="stroke: none; stroke-linecap: butt; stroke-width: 1; fill: rgb(0%,28%,0%); fill-rule: evenodd;"/>
						</g>
						<g transform="">
							<path d="M 467.46975 707.99594 C 483.92611 719.80533 490.64988 731.59858 494.91197 755.64545 C 495.39224 758.35514 494.37244 763.01017 502.18538 764.36918 C 530.90269 769.36873 559.93216 755.63539 562.4834 742.27294 C 564.08256 714.991 510.54973 691.37106 473.20712 694.52503 C 465.51311 695.81464 464.07936 705.54382 467.46975 707.99594 Z " style="stroke: none; stroke-linecap: butt; stroke-width: 1; fill: rgb(0%,28%,0%); fill-rule: evenodd;"/>
						</g>
					</g>
				</g>
			</g>
		</g>
	</g>
</svg>
