<?xml version="1.0" encoding="utf-8"?>
<!DOCTYPE svg
  PUBLIC '-//W3C//DTD SVG 1.0//EN'
  'http://www.w3.org/TR/2001/REC-SVG-20010904/DTD/svg10.dtd'>
<svg fill-rule="evenodd" height="400.0" preserveAspectRatio="xMinYMin meet" version="1.0" viewBox="0 0 300 400" width="300.0" xmlns="http://www.w3.org/2000/svg" xmlns:xlink="http://www.w3.org/1999/xlink">
	<title>...</title>
	<desc>...</desc>
	<clipPath id="clip">
		<rect height="400.0" width="300.0" x="0" y="0"/>
	</clipPath>
	<g id="group" style="clip-path: url(#clip)" transform="scale(1,-1) translate(0,-400)">
		<g transform="">
			<g transform=" matrix(1,0,0,-1,0,400)">
				<g transform=" matrix(1,0,0,1,0,-652.36216)">
					<rect height="400.77808000000005" rx="40.0" ry="40.0" style="stroke: none; stroke-linecap: round; stroke-width: 10.0; fill: rgb(96%,94%,92%); fill-rule: evenodd;" width="300.05896" x="0.0" y="652.28351"/>
					<g transform=" matrix(1,0,0,1,-0,-0.000001)">
						<g transform="">
							<path d="M -4.768783 775.07096 C -9.650184 741.99485 -16.84552 674.23676 -1.278872 652.0641 C 18.998297 625.94378 233.50094 631.63117 263.31435 653.90999 C 276.21398 662.64856 70.349579 663.12124 47.099353 691.74479 C 24.390958 719.11242 0.650608 818.18718 -4.768783 775.07096 Z " style="stroke: none; stroke-linecap: butt; stroke-width: 1; fill: rgb(100%,100%,100%); fill-rule: evenodd;"/>
						</g>
					</g>
					<g transform=" matrix(-1,0,0,-1,451.93806,1977.887)">
						<g transform="">
							<path d="M 151.73588 1025.0177 C 148.40905 1015.7039 141.48745 956.56381 157.05409 934.39115 C 177.33126 908.27083 376.48967 917.93319 388.60915 924.45931 C 399.68348 929.77633 210.00549 924.51821 183.75789 959.32577 C 162.1644 989.32637 157.25703 1041.5042 151.73588 1025.0177 Z " style="stroke: none; stroke-linecap: butt; stroke-width: 1; fill: rgb(0%,0%,0%); fill-rule: evenodd; fill-opacity: 0.19607843;"/>
						</g>
					</g>
				</g>
			</g>
		</g>
		<g transform=" matrix(0.8,0,0,0.8,30,40)">
			<g transform=" matrix(1,0,0,-1,0,400)">
				<g transform=" matrix(1,0,0,1,0,-652.36216)">
					<g transform=" matrix(1.004412,0,0,1.004412,-10.100723,-17.440744)">
						<g transform=" matrix(0.969718,0,0,1,4.829653,0)">
							<g transform="">
								<path d="M 180.01019 689.47005 C 173.4016 688.98501 149.62701 714.73494 143.40433 723.79234 C 137.70929 730.69735 148.19919 734.92236 152.26664 740.77644 C 157.4001 748.83715 153.48811 830.6831 143.92912 875.91343 L 159.39697 873.60298 C 169.54865 836.53276 177.05848 767.68296 184.65896 761.52316 C 191.89334 755.87433 208.33097 756.46877 206.33427 748.10655 C 202.2011 729.43438 185.88772 689.68123 180.01019 689.47005 Z " style="stroke: none; stroke-linecap: butt; stroke-width: 1; fill: rgb(9%,19%,54%); fill-rule: evenodd;"/>
							</g>
							<g transform="">
								<path d="M 122.01681 796.92731 C 103.10078 797.80704 93.218562 807.62469 120.96765 811.42764 C 153.66681 812.77202 221.88165 805.46877 221.95889 796.2169 C 222.45896 783.83086 212.27868 765.85575 206.23183 765.96717 C 201.42184 766.03377 191.62476 772.04916 190.73448 779.31935 C 189.96218 787.84376 139.74169 795.90865 122.01681 796.92731 Z " style="stroke: none; stroke-linecap: butt; stroke-width: 1; fill: rgb(9%,19%,54%); fill-rule: evenodd;"/>
							</g>
							<g transform="">
								<path d="M 153.67205 848.84527 C 179.30447 838.28197 199.60034 828.41146 223.83874 815.06012 C 232.34295 810.66156 240.29823 819.71207 238.55459 825.55495 C 237.42126 829.3527 224.46881 852.32284 235.8586 853.21892 C 225.56104 861.24863 197.78839 885.0157 181.85393 921.02294 L 157.02387 918.92462 C 167.67955 892.25835 208.3932 847.74379 205.63483 844.8235 C 200.93338 839.73719 163.48013 858.3637 155.29733 856.0149 Z " style="stroke: none; stroke-linecap: butt; stroke-width: 1; fill: rgb(9%,19%,54%); fill-rule: evenodd;"/>
							</g>
							<g transform="">
								<path d="M 58.289846 893.36579 C 98.37429 871.73604 187.21397 852.18031 258.85433 851.06873 C 267.97001 850.51233 289.76776 903.44287 289.57512 912.58704 C 288.97645 938.61509 244.14212 1001.0852 216.32794 1038.7043 C 210.53492 1045.127 197.4299 1043.5507 188.6316 1038.0861 L 141.09458 1006.5216 C 136.29023 1002.4719 138.09024 993.93063 146.14462 998.77805 C 156.78523 1005.3281 178.54962 1013.6365 190.60991 1015.2119 C 201.68451 1016.6846 238.74743 929.05852 240.96468 914.28291 C 242.26749 907.57407 233.48158 875.03868 217.63167 874.00999 C 110.38759 878.00321 74.485284 909.80645 60.091165 911.25846 Z " style="stroke: none; stroke-linecap: butt; stroke-width: 1; fill: rgb(9%,19%,54%); fill-rule: evenodd;"/>
							</g>
							<g transform="">
								<path d="M 35.176769 856.0746 C 26.847626 858.54799 29.633342 868.99817 30.817708 875.30915 C 40.585109 918.55773 77.150576 1000.6598 84.459293 1005.5495 C 106.95734 1018.0316 115.75432 1009.7127 115.37215 1000.3037 C 114.23554 991.1834 85.091069 915.86032 66.796347 876.10374 C 60.478631 863.40207 44.742047 853.66589 35.176769 856.0746 Z " style="stroke: none; stroke-linecap: butt; stroke-width: 1; fill: rgb(9%,19%,54%); fill-rule: evenodd;"/>
							</g>
							<g transform="">
								<path d="M 69.201953 835.83331 C 55.490599 829.38496 59.917852 817.70452 78.464362 824.73746 C 120.5696 840.45326 136.70099 866.7085 150.45943 918.41974 L 134.99158 922.61636 C 121.71411 873.69471 105.90056 855.54714 69.201953 835.83331 Z " style="stroke: none; stroke-linecap: butt; stroke-width: 1; fill: rgb(9%,19%,54%); fill-rule: evenodd;"/>
							</g>
							<g transform="">
								<path d="M 121.2172 943.33039 C 105.31206 949.23373 108.18567 925.31974 118.9582 922.29902 C 193.08899 899.14943 196.56284 901.14082 208.95652 906.06859 C 220.8087 910.83119 225.05069 928.01884 209.30727 927.16724 C 178.12073 925.19831 153.72044 929.71653 121.2172 943.33039 Z " style="stroke: none; stroke-linecap: butt; stroke-width: 1; fill: rgb(9%,19%,54%); fill-rule: evenodd;"/>
							</g>
							<g transform="">
								<path d="M 124.2573 959.25452 C 114.03492 961.96207 117.2401 977.52399 127.53491 975.205 C 154.27931 969.54174 173.10516 966.17269 200.58546 962.20832 C 208.86737 960.83365 208.60802 939.63037 201.12406 936.32479 C 191.03486 933.29753 189.90552 939.94281 185.47204 942.43761 C 173.33195 948.64526 148.25222 952.88591 124.2573 959.25452 Z " style="stroke: none; stroke-linecap: butt; stroke-width: 1; fill: rgb(9%,19%,54%); fill-rule: evenodd;"/>
							</g>
							<g transform="">
								<path d="M 146.80164 925.40788 C 149.03448 951.20834 151.71619 980.15626 148.55024 1005.9567 L 166.07289 1015.601 C 169.20012 985.92636 172.58739 952.40479 170.32429 922.73013 Z " style="stroke: none; stroke-linecap: butt; stroke-width: 1; fill: rgb(9%,19%,54%); fill-rule: evenodd;"/>
							</g>
						</g>
					</g>
				</g>
			</g>
		</g>
	</g>
</svg>
