<?xml version="1.0" encoding="utf-8"?>
<!DOCTYPE svg
  PUBLIC '-//W3C//DTD SVG 1.0//EN'
  'http://www.w3.org/TR/2001/REC-SVG-20010904/DTD/svg10.dtd'>
<svg fill-rule="evenodd" height="400.0" preserveAspectRatio="xMinYMin meet" version="1.0" viewBox="0 0 300 400" width="300.0" xmlns="http://www.w3.org/2000/svg" xmlns:xlink="http://www.w3.org/1999/xlink">
	<title>...</title>
	<desc>...</desc>
	<clipPath id="clip">
		<rect height="400.0" width="300.0" x="0" y="0"/>
	</clipPath>
	<g id="group" style="clip-path: url(#clip)" transform="scale(1,-1) translate(0,-400)">
		<g transform="">
			<g transform=" matrix(1,0,0,-1,0,400)">
				<g transform=" matrix(1,0,0,1,0,-652.36216)">
					<rect height="400.77808000000005" rx="40.0" ry="40.0" style="stroke: none; stroke-linecap: round; stroke-width: 10.0; fill: rgb(96%,94%,92%); fill-rule: evenodd;" width="300.05896" x="0.0" y="652.28351"/>
					<g transform=" matrix(1,0,0,1,-0,-0.000001)">
						<g transform="">
							<path d="M -4.768783 775.07096 C -9.650184 741.99485 -16.84552 674.23676 -1.278872 652.0641 C 18.998297 625.94378 233.50094 631.63117 263.31435 653.90999 C 276.21398 662.64856 70.349579 663.12124 47.099353 691.74479 C 24.390958 719.11242 0.650608 818.18718 -4.768783 775.07096 Z " style="stroke: none; stroke-linecap: butt; stroke-width: 1; fill: rgb(100%,100%,100%); fill-rule: evenodd;"/>
						</g>
					</g>
					<g transform=" matrix(-1,0,0,-1,451.93806,1977.887)">
						<g transform="">
							<path d="M 151.73588 1025.0177 C 148.40905 1015.7039 141.48745 956.56381 157.05409 934.39115 C 177.33126 908.27083 376.48967 917.93319 388.60915 924.45931 C 399.68348 929.77633 210.00549 924.51821 183.75789 959.32577 C 162.1644 989.32637 157.25703 1041.5042 151.73588 1025.0177 Z " style="stroke: none; stroke-linecap: butt; stroke-width: 1; fill: rgb(0%,0%,0%); fill-rule: evenodd; fill-opacity: 0.19607843;"/>
						</g>
					</g>
				</g>
			</g>
		</g>
		<g transform=" matrix(0.8,0,0,0.8,30,40)">
			<g transform=" matrix(1,0,0,-1,0,400)">
				<g transform=" matrix(1,0,0,1,0,-652.36216)">
					<g transform=" matrix(1,0,0,1,-0,-0.817852)">
						<g transform=" matrix(0.765842,0,0,0.765842,512.08203,490.47575)">
							<circle cx="-472.78326" cy="341.25565" r="107.56709" style="stroke: rgb(0%,0%,0%); stroke-linecap: round; stroke-width: 17.21711159; fill: rgb(100%,100%,100%); fill-rule: evenodd;"/>
							<circle cx="-472.78326" cy="341.62653" r="87.813393" style="stroke: none; stroke-linecap: round; stroke-width: 0.0; fill: rgb(0%,0%,21%); fill-rule: evenodd;"/>
							<g transform=" matrix(0.104774,0,0,0.085875,-506.32882,359.1076)">
								<g transform="">
									<path d="M -93.329197 -74.125463 C -159.843031 -18.313729 -258.339506 -24.050495 -317.92425 -87.206636 C -377.508994 -150.362775 -377.508994 -249.026171 -317.92425 -312.18231 C -258.339505 -375.338451 -159.843029 -381.075216 -93.329195 -325.26348 " style="stroke: rgb(100%,100%,100%); stroke-linecap: round; stroke-width: 125.71019745; fill: none; fill-rule: evenodd;"/>
								</g>
							</g>
							<g transform=" matrix(0.5,-0.866025,0.866025,0.5,-532.66673,-238.47425)">
								<g transform=" matrix(0.104774,0,0,0.085875,-506.32882,359.1076)">
									<g transform="">
										<path d="M -93.329197 -74.125463 C -159.843031 -18.313729 -258.339506 -24.050495 -317.92425 -87.206636 C -377.508994 -150.362775 -377.508994 -249.026171 -317.92425 -312.18231 C -258.339505 -375.338451 -159.843029 -381.075216 -93.329195 -325.26348 " style="stroke: rgb(100%,100%,100%); stroke-linecap: round; stroke-width: 125.71019745; fill: none; fill-rule: evenodd;"/>
									</g>
								</g>
							</g>
							<g transform=" matrix(0.5,-0.866025,0.866025,0.5,-533.74838,-239.03721)">
								<g transform=" matrix(0.5,-0.866025,0.866025,0.5,-532.66673,-238.47425)">
									<g transform=" matrix(0.104774,0,0,0.085875,-506.32882,359.1076)">
										<g transform="">
											<path d="M -93.329197 -74.125463 C -159.843031 -18.313729 -258.339506 -24.050495 -317.92425 -87.206636 C -377.508994 -150.362775 -377.508994 -249.026171 -317.92425 -312.18231 C -258.339505 -375.338451 -159.843029 -381.075216 -93.329195 -325.26348 " style="stroke: rgb(100%,100%,100%); stroke-linecap: round; stroke-width: 125.71019745; fill: none; fill-rule: evenodd;"/>
										</g>
									</g>
								</g>
							</g>
							<g transform=" matrix(0.5,-0.866025,0.866025,0.5,-533.74838,-239.03721)">
								<g transform=" matrix(0.5,-0.866025,0.866025,0.5,-533.74838,-239.03721)">
									<g transform=" matrix(0.5,-0.866025,0.866025,0.5,-532.66673,-238.47425)">
										<g transform=" matrix(0.104774,0,0,0.085875,-506.32882,359.1076)">
											<g transform="">
												<path d="M -93.329197 -74.125463 C -159.843031 -18.313729 -258.339506 -24.050495 -317.92425 -87.206636 C -377.508994 -150.362775 -377.508994 -249.026171 -317.92425 -312.18231 C -258.339505 -375.338451 -159.843029 -381.075216 -93.329195 -325.26348 " style="stroke: rgb(100%,100%,100%); stroke-linecap: round; stroke-width: 125.71019745; fill: none; fill-rule: evenodd;"/>
											</g>
										</g>
									</g>
								</g>
							</g>
							<g transform=" matrix(0.5,-0.866025,0.866025,0.5,-533.74838,-239.03721)">
								<g transform=" matrix(0.5,-0.866025,0.866025,0.5,-533.74838,-239.03721)">
									<g transform=" matrix(0.5,-0.866025,0.866025,0.5,-533.74838,-239.03721)">
										<g transform=" matrix(0.5,-0.866025,0.866025,0.5,-532.66673,-238.47425)">
											<g transform=" matrix(0.104774,0,0,0.085875,-506.32882,359.1076)">
												<g transform="">
													<path d="M -93.329197 -74.125463 C -159.843031 -18.313729 -258.339506 -24.050495 -317.92425 -87.206636 C -377.508994 -150.362775 -377.508994 -249.026171 -317.92425 -312.18231 C -258.339505 -375.338451 -159.843029 -381.075216 -93.329195 -325.26348 " style="stroke: rgb(100%,100%,100%); stroke-linecap: round; stroke-width: 125.71019745; fill: none; fill-rule: evenodd;"/>
												</g>
											</g>
										</g>
									</g>
								</g>
							</g>
							<g transform=" matrix(0.5,-0.866025,0.866025,0.5,-533.74838,-239.03721)">
								<g transform=" matrix(0.5,-0.866025,0.866025,0.5,-533.74838,-239.03721)">
									<g transform=" matrix(0.5,-0.866025,0.866025,0.5,-533.74838,-239.03721)">
										<g transform=" matrix(0.5,-0.866025,0.866025,0.5,-533.74838,-239.03721)">
											<g transform=" matrix(0.5,-0.866025,0.866025,0.5,-532.66673,-238.47425)">
												<g transform=" matrix(0.104774,0,0,0.085875,-506.32882,359.1076)">
													<g transform="">
														<path d="M -93.329197 -74.125463 C -159.843031 -18.313729 -258.339506 -24.050495 -317.92425 -87.206636 C -377.508994 -150.362775 -377.508994 -249.026171 -317.92425 -312.18231 C -258.339505 -375.338451 -159.843029 -381.075216 -93.329195 -325.26348 " style="stroke: rgb(100%,100%,100%); stroke-linecap: round; stroke-width: 125.71019745; fill: none; fill-rule: evenodd;"/>
													</g>
												</g>
											</g>
										</g>
									</g>
								</g>
							</g>
							<circle cx="-472.93054" cy="341.51578" r="18.188499" style="stroke: rgb(100%,100%,100%); stroke-linecap: round; stroke-width: 12.28584385; fill: none; fill-rule: evenodd;"/>
						</g>
						<g transform=" matrix(0.765842,0,0,0.765842,512.08203,692.97575)">
							<circle cx="-472.78326" cy="341.25565" r="107.56709" style="stroke: rgb(0%,0%,0%); stroke-linecap: round; stroke-width: 17.21711159; fill: rgb(100%,100%,100%); fill-rule: evenodd;"/>
							<circle cx="-472.78326" cy="341.62653" r="87.813393" style="stroke: none; stroke-linecap: round; stroke-width: 0.0; fill: rgb(0%,0%,21%); fill-rule: evenodd;"/>
							<g transform=" matrix(0.104774,0,0,0.085875,-506.32882,359.1076)">
								<g transform="">
									<path d="M -93.329197 -74.125463 C -159.843031 -18.313729 -258.339506 -24.050495 -317.92425 -87.206636 C -377.508994 -150.362775 -377.508994 -249.026171 -317.92425 -312.18231 C -258.339505 -375.338451 -159.843029 -381.075216 -93.329195 -325.26348 " style="stroke: rgb(100%,100%,100%); stroke-linecap: round; stroke-width: 125.71019745; fill: none; fill-rule: evenodd;"/>
								</g>
							</g>
							<g transform=" matrix(0.5,-0.866025,0.866025,0.5,-532.66673,-238.47425)">
								<g transform=" matrix(0.104774,0,0,0.085875,-506.32882,359.1076)">
									<g transform="">
										<path d="M -93.329197 -74.125463 C -159.843031 -18.313729 -258.339506 -24.050495 -317.92425 -87.206636 C -377.508994 -150.362775 -377.508994 -249.026171 -317.92425 -312.18231 C -258.339505 -375.338451 -159.843029 -381.075216 -93.329195 -325.26348 " style="stroke: rgb(100%,100%,100%); stroke-linecap: round; stroke-width: 125.71019745; fill: none; fill-rule: evenodd;"/>
									</g>
								</g>
							</g>
							<g transform=" matrix(0.5,-0.866025,0.866025,0.5,-533.74838,-239.03721)">
								<g transform=" matrix(0.5,-0.866025,0.866025,0.5,-532.66673,-238.47425)">
									<g transform=" matrix(0.104774,0,0,0.085875,-506.32882,359.1076)">
										<g transform="">
											<path d="M -93.329197 -74.125463 C -159.843031 -18.313729 -258.339506 -24.050495 -317.92425 -87.206636 C -377.508994 -150.362775 -377.508994 -249.026171 -317.92425 -312.18231 C -258.339505 -375.338451 -159.843029 -381.075216 -93.329195 -325.26348 " style="stroke: rgb(100%,100%,100%); stroke-linecap: round; stroke-width: 125.71019745; fill: none; fill-rule: evenodd;"/>
										</g>
									</g>
								</g>
							</g>
							<g transform=" matrix(0.5,-0.866025,0.866025,0.5,-533.74838,-239.03721)">
								<g transform=" matrix(0.5,-0.866025,0.866025,0.5,-533.74838,-239.03721)">
									<g transform=" matrix(0.5,-0.866025,0.866025,0.5,-532.66673,-238.47425)">
										<g transform=" matrix(0.104774,0,0,0.085875,-506.32882,359.1076)">
											<g transform="">
												<path d="M -93.329197 -74.125463 C -159.843031 -18.313729 -258.339506 -24.050495 -317.92425 -87.206636 C -377.508994 -150.362775 -377.508994 -249.026171 -317.92425 -312.18231 C -258.339505 -375.338451 -159.843029 -381.075216 -93.329195 -325.26348 " style="stroke: rgb(100%,100%,100%); stroke-linecap: round; stroke-width: 125.71019745; fill: none; fill-rule: evenodd;"/>
											</g>
										</g>
									</g>
								</g>
							</g>
							<g transform=" matrix(0.5,-0.866025,0.866025,0.5,-533.74838,-239.03721)">
								<g transform=" matrix(0.5,-0.866025,0.866025,0.5,-533.74838,-239.03721)">
									<g transform=" matrix(0.5,-0.866025,0.866025,0.5,-533.74838,-239.03721)">
										<g transform=" matrix(0.5,-0.866025,0.866025,0.5,-532.66673,-238.47425)">
											<g transform=" matrix(0.104774,0,0,0.085875,-506.32882,359.1076)">
												<g transform="">
													<path d="M -93.329197 -74.125463 C -159.843031 -18.313729 -258.339506 -24.050495 -317.92425 -87.206636 C -377.508994 -150.362775 -377.508994 -249.026171 -317.92425 -312.18231 C -258.339505 -375.338451 -159.843029 -381.075216 -93.329195 -325.26348 " style="stroke: rgb(100%,100%,100%); stroke-linecap: round; stroke-width: 125.71019745; fill: none; fill-rule: evenodd;"/>
												</g>
											</g>
										</g>
									</g>
								</g>
							</g>
							<g transform=" matrix(0.5,-0.866025,0.866025,0.5,-533.74838,-239.03721)">
								<g transform=" matrix(0.5,-0.866025,0.866025,0.5,-533.74838,-239.03721)">
									<g transform=" matrix(0.5,-0.866025,0.866025,0.5,-533.74838,-239.03721)">
										<g transform=" matrix(0.5,-0.866025,0.866025,0.5,-533.74838,-239.03721)">
											<g transform=" matrix(0.5,-0.866025,0.866025,0.5,-532.66673,-238.47425)">
												<g transform=" matrix(0.104774,0,0,0.085875,-506.32882,359.1076)">
													<g transform="">
														<path d="M -93.329197 -74.125463 C -159.843031 -18.313729 -258.339506 -24.050495 -317.92425 -87.206636 C -377.508994 -150.362775 -377.508994 -249.026171 -317.92425 -312.18231 C -258.339505 -375.338451 -159.843029 -381.075216 -93.329195 -325.26348 " style="stroke: rgb(100%,100%,100%); stroke-linecap: round; stroke-width: 125.71019745; fill: none; fill-rule: evenodd;"/>
													</g>
												</g>
											</g>
										</g>
									</g>
								</g>
							</g>
							<circle cx="-472.93054" cy="341.51578" r="18.188499" style="stroke: rgb(100%,100%,100%); stroke-linecap: round; stroke-width: 12.28584385; fill: none; fill-rule: evenodd;"/>
						</g>
					</g>
				</g>
			</g>
		</g>
	</g>
</svg>
