<?xml version="1.0" encoding="utf-8"?>
<!DOCTYPE svg
  PUBLIC '-//W3C//DTD SVG 1.0//EN'
  'http://www.w3.org/TR/2001/REC-SVG-20010904/DTD/svg10.dtd'>
<svg fill-rule="evenodd" height="400.0" preserveAspectRatio="xMinYMin meet" version="1.0" viewBox="0 0 300 400" width="300.0" xmlns="http://www.w3.org/2000/svg" xmlns:xlink="http://www.w3.org/1999/xlink">
	<title>...</title>
	<desc>...</desc>
	<clipPath id="clip">
		<rect height="400.0" width="300.0" x="0" y="0"/>
	</clipPath>
	<g id="group" style="clip-path: url(#clip)" transform="scale(1,-1) translate(0,-400)">
		<g transform="">
			<g transform=" matrix(1,0,0,-1,0,400)">
				<g transform=" matrix(1,0,0,1,0,-652.36216)">
					<rect height="400.77808000000005" rx="40.0" ry="40.0" style="stroke: none; stroke-linecap: round; stroke-width: 10.0; fill: rgb(96%,94%,92%); fill-rule: evenodd;" width="300.05896" x="0.0" y="652.28351"/>
					<g transform=" matrix(1,0,0,1,-0,-0.000001)">
						<g transform="">
							<path d="M -4.768783 775.07096 C -9.650184 741.99485 -16.84552 674.23676 -1.278872 652.0641 C 18.998297 625.94378 233.50094 631.63117 263.31435 653.90999 C 276.21398 662.64856 70.349579 663.12124 47.099353 691.74479 C 24.390958 719.11242 0.650608 818.18718 -4.768783 775.07096 Z " style="stroke: none; stroke-linecap: butt; stroke-width: 1; fill: rgb(100%,100%,100%); fill-rule: evenodd;"/>
						</g>
					</g>
					<g transform=" matrix(-1,0,0,-1,451.93806,1977.887)">
						<g transform="">
							<path d="M 151.73588 1025.0177 C 148.40905 1015.7039 141.48745 956.56381 157.05409 934.39115 C 177.33126 908.27083 376.48967 917.93319 388.60915 924.45931 C 399.68348 929.77633 210.00549 924.51821 183.75789 959.32577 C 162.1644 989.32637 157.25703 1041.5042 151.73588 1025.0177 Z " style="stroke: none; stroke-linecap: butt; stroke-width: 1; fill: rgb(0%,0%,0%); fill-rule: evenodd; fill-opacity: 0.19607843;"/>
						</g>
					</g>
				</g>
			</g>
		</g>
		<g transform=" matrix(0.8,0,0,0.8,30,40)">
			<g transform=" matrix(1,0,0,-1,0,400)">
				<g transform=" matrix(1,0,0,1,0,-652.36216)">
					<g transform=" matrix(0.466904,0,0,0.498736,-17.749353,624.086)">
						<g transform=" matrix(0.97502,-0.215828,0.22384,0.976071,-18.206062,79.986289)">
							<g transform="">
								<path d="M 293.03997 673.85105 L 286.5593 732.38953 C 268.15655 731.44779 255.25192 724.75921 242.9188 720.84967 C 250.61893 735.79306 264.48994 745.16934 281.69307 754.40047 L 275.26964 795.76045 C 248.15818 791.08676 243.79829 790.34 222.71376 787.29891 C 241.55753 794.72825 248.22656 798.70492 261.2186 805.00938 C 238.41863 808.81262 231.62128 810.09326 200.42534 817.19152 C 232.58775 815.98557 243.74556 817.68081 268.86151 816.78696 C 258.01063 824.7786 247.16782 827.17157 237.40503 841.40442 C 263.38204 836.13172 284.1235 824.65045 297.567 818.20561 C 309.97523 816.50701 318.67435 814.05456 336.50882 811.05927 C 328.77849 806.18085 315.12757 802.7494 300.90445 799.36349 L 306.34808 755.9276 C 332.04451 751.71545 349.91917 739.03846 362.77862 734.54768 C 342.98946 738.17834 330.95889 736.39717 310.33363 734.24603 L 317.10946 674.72669 Z " style="stroke: none; stroke-linecap: butt; stroke-width: 1; fill: rgb(72%,23%,23%); fill-rule: evenodd;"/>
							</g>
						</g>
						<g transform="">
							<path d="M 293.03997 673.85105 L 286.5593 732.38953 C 268.15655 731.44779 255.25192 724.75921 242.9188 720.84967 C 250.61893 735.79306 264.48994 745.16934 281.69307 754.40047 L 275.26964 795.76045 C 248.15818 791.08676 243.79829 790.34 222.71376 787.29891 C 241.55753 794.72825 248.22656 798.70492 261.2186 805.00938 C 238.41863 808.81262 231.62128 810.09326 200.42534 817.19152 C 232.58775 815.98557 243.74556 817.68081 268.86151 816.78696 C 258.01063 824.7786 247.16782 827.17157 237.40503 841.40442 C 263.38204 836.13172 284.1235 824.65045 297.567 818.20561 C 309.97523 816.50701 318.67435 814.05456 336.50882 811.05927 C 328.77849 806.18085 315.12757 802.7494 300.90445 799.36349 L 306.34808 755.9276 C 332.04451 751.71545 349.91917 739.03846 362.77862 734.54768 C 342.98946 738.17834 330.95889 736.39717 310.33363 734.24603 L 317.10946 674.72669 Z " style="stroke: none; stroke-linecap: butt; stroke-width: 1; fill: rgb(72%,23%,23%); fill-rule: evenodd;"/>
						</g>
						<g transform="">
							<path d="M 205.67635 526.53066 C 178.35076 513.45968 171.02226 504.25064 162.37245 494.7864 C 144.51259 475.68916 127.30722 464.98343 106.53747 451.66499 C 124.37571 466.89844 139.94297 479.32933 155.28996 505.86986 L 105.81541 496.6194 C 141.93294 509.11368 169.32723 525.48499 187.79 543.41408 Z " style="stroke: none; stroke-linecap: butt; stroke-width: 1; fill: rgb(0%,0%,0%); fill-rule: evenodd;"/>
						</g>
						<g transform="">
							<path d="M 539.91824 586.55294 C 581.51818 567.06412 617.13127 543.22211 669.98581 530.14287 C 610.93683 552.45237 578.75759 573.39886 549.81444 603.70157 C 546.69526 610.08933 550.31024 616.47708 551.46775 622.86484 L 522.44677 572.8905 C 529.30327 580.07314 534.60337 588.81896 539.91824 586.55294 Z " style="stroke: rgb(0%,0%,0%); stroke-linecap: butt; stroke-width: 0.91780353; fill: rgb(0%,0%,0%); fill-rule: evenodd;"/>
						</g>
						<g transform="">
							<path d="M 497.25019 523.92856 C 509.34192 541.81518 575.42651 484.94904 609.94232 462.60741 L 545.9312 514.89525 L 608.28528 478.43568 C 571.74663 507.02263 528.75306 525.96256 514.52388 556.33434 Z " style="stroke: rgb(0%,0%,0%); stroke-linecap: butt; stroke-width: 0.64343536; fill: rgb(0%,0%,0%); fill-rule: evenodd;"/>
						</g>
						<g transform="">
							<path d="M 240.70089 192.26798 C 235.02136 193.13186 231.51879 192.05679 229.16163 190.2279 C 225.94434 188.05022 223.61504 185.48125 221.52967 182.84117 C 221.52967 182.84117 221.52967 182.84117 221.52967 182.84117 C 216.29291 176.24441 211.93444 169.32522 205.90379 162.95266 C 205.90379 162.95266 205.90378 162.95266 205.90378 162.95266 C 204.72996 161.67505 203.5002 160.42209 202.20024 159.20673 C 198.93288 166.93856 196.21329 175.07562 195.80065 182.92011 C 195.39785 190.62452 197.51992 198.0165 202.47019 202.71728 C 202.61624 202.53805 203.37752 202.14744 204.34022 201.56481 C 205.88616 200.71608 208.54369 200.20335 212.00069 199.51896 L 212.00069 199.51896 C 215.03562 198.99132 218.94395 198.64318 223.65494 197.98162 L 223.65494 197.98162 C 225.51979 197.7496 227.92397 197.33576 230.83132 196.61217 C 232.91285 196.3199 236.26272 194.94778 240.70089 192.26798 Z M 202.47019 202.71728 C 201.2553 201.71599 199.95132 200.84393 198.56614 200.13437 C 184.20948 199.45532 170.57636 197.07157 156.7399 194.91272 C 160.7686 203.82398 164.65964 212.90566 168.89293 221.69843 C 171.41477 226.88515 174.14024 231.90242 177.41692 236.26059 C 178.45731 234.66192 179.74312 232.90409 181.18065 230.94256 C 187.59978 222.41876 195.18787 213.40014 202.48134 202.81133 L 202.48135 202.81132 C 202.43555 202.79322 202.43395 202.76172 202.47015 202.71732 Z M 177.41692 236.26059 C 174.32295 235.66528 171.21414 235.18448 168.05791 234.94179 C 160.73088 234.29196 152.8412 235.02689 145.28085 238.96521 C 145.28085 238.96521 145.28085 238.96521 145.28085 238.96521 C 140.85471 241.30812 136.64774 244.61562 132.85644 248.57564 C 136.55117 251.29046 140.45669 253.3249 144.40654 254.80534 C 155.96188 259.00951 167.45854 258.91373 178.54474 258.15453 C 176.59613 254.18769 175.03949 250.81161 174.50406 247.97764 L 174.50406 247.97764 C 174.1411 246.03088 173.94074 244.41417 174.19885 243.402 L 174.19885 243.402 C 174.24775 242.40437 174.90404 240.91089 175.8068 239.02146 C 176.23776 238.15377 176.78158 237.23686 177.41692 236.26059 Z M 178.54474 258.15453 C 178.54474 258.15453 178.54274 258.15653 178.54274 258.15653 C 168.90268 272.56193 161.88998 284.5356 156.54495 292.86485 C 171.97265 293.71971 186.22811 297.18826 199.72073 304.54885 C 191.26083 288.89344 183.59333 273.74872 178.54492 258.1554 C 178.54492 258.1554 178.54442 258.1544 178.54442 258.1544 Z M 199.72105 304.54899 C 197.75207 307.79457 195.97108 310.44175 194.32059 312.41789 C 184.87916 314.35556 175.19917 314.90924 165.36209 314.17462 C 168.83819 320.7296 173.46881 331.53901 179.09004 346.14802 C 186.83284 334.56781 195.55913 323.8322 204.94161 314.12835 C 203.17905 310.90899 201.43381 307.71852 199.72105 304.54899 Z M 179.09004 346.14802 C 173.6645 346.11642 168.20611 345.66052 162.7309 344.79914 C 152.83287 342.71272 142.47382 341.52667 131.67781 341.92726 C 133.96493 346.84059 136.50663 351.54749 139.3284 355.97222 C 145.02429 364.92691 151.96698 372.81756 160.05864 378.13919 C 160.8685 375.22663 162.21467 372.11583 163.84398 368.86836 C 166.40774 363.91225 169.89986 359.06215 173.91579 354.25661 L 173.91579 354.25661 C 175.58604 351.51072 177.31211 348.8071 179.09004 346.14802 Z M 160.05864 378.13919 C 156.29374 378.41433 152.52284 379.03312 148.78691 380.0862 C 138.03721 383.01366 127.41258 389.98135 120.02551 401.47153 C 121.7057 402.20445 123.39601 402.85175 125.09009 403.40984 C 140.05236 408.13279 154.24136 405.36596 165.8391 399.52345 C 163.02836 396.61876 160.84059 393.72162 160.0811 391.00964 L 160.0811 391.00964 C 159.06082 388.46731 158.90934 385.08177 159.34729 381.64378 C 159.48093 380.51232 159.724 379.34268 160.05864 378.13919 Z M 165.8391 399.52345 C 165.10954 401.02244 164.44647 402.57436 163.85021 404.16812 C 159.34513 416.74269 158.87738 431.29552 160.5387 446.00329 C 166.70068 442.39741 172.39479 438.32263 177.74075 434.02766 C 184.60332 428.52153 190.89562 422.61766 196.7442 416.42508 C 193.35734 415.27562 190.05872 414.01911 186.86309 412.63077 L 186.86309 412.63077 C 178.93146 409.08457 171.90337 405.4044 167.01401 400.70422 L 167.01401 400.70421 C 166.61227 400.31078 166.21996 399.91705 165.8391 399.52345 Z M 196.7442 416.42508 C 198.82569 431.68104 203.03391 447.16405 208.35106 462.50076 C 212.00496 458.40956 215.51538 454.24804 218.91216 450.0419 C 225.26735 441.9988 231.47 433.88917 237.49789 425.71195 C 232.94956 425.00788 228.40197 424.26434 223.85559 423.48512 C 214.41435 421.54836 205.29789 419.32811 196.7442 416.42508 Z M 237.49789 425.71195 C 242.70244 440.47365 248.35054 455.19955 254.52987 469.86142 C 263.7618 457.11231 272.55199 444.19367 280.82059 431.10169 C 266.38258 429.78423 251.93655 427.94702 237.49789 425.71195 Z M 280.82059 431.10169 C 285.4893 442.00606 290.47592 452.86286 295.81845 463.65985 C 297.53394 467.12918 299.28336 470.59062 301.06511 474.04409 C 309.2974 460.66294 317.00174 447.11669 324.26616 433.44391 C 315.40517 433.29322 306.57265 432.957 297.7765 432.40292 C 292.12638 432.05375 286.4741 431.61757 280.82059 431.10169 Z M 324.26616 433.44391 C 331.56547 447.36437 339.3763 461.16119 347.58807 474.82849 C 351.88631 466.56281 356.04017 458.26159 360.06811 449.93291 C 362.82173 444.2428 365.52493 438.54139 368.19157 432.83053 C 365.29948 432.94697 362.41258 433.0522 359.53077 433.14379 C 347.73828 433.51815 335.97734 433.64307 324.26616 433.44391 Z M 368.19157 432.83053 C 376.38727 446.30605 384.89083 459.69179 393.46745 473.04208 C 400.02002 458.8712 406.43085 444.67842 412.90726 430.49131 C 397.85795 431.34922 382.95716 432.23604 368.19157 432.83053 Z M 412.90726 430.49131 C 416.51728 436.10418 420.12845 441.71863 423.72324 447.33871 C 428.65859 455.06514 433.61028 462.80218 438.56632 470.55181 C 445.0487 456.41706 451.50401 442.31668 457.98568 428.2612 C 446.21802 428.71977 434.47781 429.29203 422.76587 429.93795 C 419.47252 430.11882 416.18637 430.30438 412.90726 430.49131 Z M 457.98568 428.2612 C 466.55006 441.73035 475.1094 455.24754 483.60182 468.82308 C 488.91386 457.39844 494.25714 446.01095 499.66099 434.66637 C 500.78931 432.05872 501.88262 429.44627 502.93672 426.83019 C 501.72461 426.95347 500.5085 427.07115 499.28872 427.18391 C 485.48456 427.34583 471.71644 427.72612 457.98568 428.2612 Z M 502.93672 426.83019 C 510.9836 439.86109 520.04109 452.63073 530.79278 464.63701 C 536.42606 449.59792 540.5559 434.44523 542.47371 419.37813 C 530.14463 423.27586 516.80238 425.41987 502.93672 426.83019 Z M 542.47371 419.37813 C 543.01305 419.95675 543.55736 420.53269 544.10672 421.10587 C 554.24745 431.52963 565.7905 441.41556 579.95166 448.56643 C 580.71466 438.8843 580.40698 429.40627 578.62853 420.47339 C 577.37926 414.28214 575.35555 408.39351 572.55927 403.15458 C 571.25896 404.48525 569.80562 405.7898 568.25824 407.05753 C 561.86803 412.23403 553.13233 415.84571 543.46297 419.06089 L 543.46297 419.06089 C 543.13395 419.16791 542.80419 419.27365 542.47371 419.37813 Z M 572.55927 403.15458 C 582.13181 407.48055 593.18857 409.51268 604.97326 407.27116 C 609.65463 406.35269 614.37447 404.77439 619.00743 402.59389 C 611.25611 392.58791 601.22877 385.94106 590.89507 382.5123 C 587.0211 381.19958 583.09509 380.29598 579.15757 379.73772 C 579.40417 381.00255 579.571 382.24331 579.64599 383.45499 L 579.64598 383.45499 C 579.94652 387.82387 579.43097 392.1515 577.86171 395.48787 C 576.88596 398.08826 574.99 400.66708 572.55927 403.15458 Z M 579.15757 379.73772 C 588.4969 374.11525 596.6109 365.34445 603.1377 355.15189 C 605.39821 351.6348 607.48579 347.9345 609.40157 344.08184 C 595.48045 343.11967 582.12622 344.72855 569.64814 347.98205 C 567.45118 348.55596 565.2812 349.1842 563.14094 349.86591 C 563.72295 350.53617 564.296 351.21517 564.85987 351.90245 L 564.85987 351.90245 C 569.07203 357.09559 572.6651 362.53259 575.25232 368.15555 L 575.25232 368.15555 C 577.03467 372.13881 578.43684 376.0411 579.15757 379.73772 Z M 563.14094 349.86591 C 568.73566 337.4649 572.47356 323.70322 573.79027 309.01788 C 574.08486 307.76048 574.3793 306.60923 574.66909 305.5646 C 562.25676 314.19505 548.47967 316.64442 535.62654 313.50677 C 534.99676 312.82279 534.32419 312.05579 533.60803 311.20779 C 533.29609 312.26405 532.97952 313.32043 532.65868 314.37699 C 538.67053 321.33412 544.72902 329.45315 550.88106 338.15124 L 550.88106 338.15124 C 555.29683 341.61767 559.40349 345.56171 563.14094 349.86591 Z M 533.60803 311.20779 C 545.14371 299.85599 559.29193 294.74763 576.09734 294.37273 C 573.99113 291.99616 571.58322 289.15169 568.86082 285.87044 C 562.07405 277.02992 554.42652 269.05986 545.92885 263.04115 C 544.99358 266.71775 543.62698 270.53164 542.01267 274.44876 C 540.20885 286.76942 537.21882 298.98118 533.60803 311.20779 Z M 545.92885 263.04115 C 551.64304 262.16496 557.34318 260.75291 562.95547 258.6143 C 571.88086 255.23008 580.61026 249.90992 588.08312 242.1006 C 584.69078 240.23181 581.23191 238.65108 577.74084 237.39673 C 565.70058 233.08376 553.42613 232.96586 542.71091 236.11522 C 544.51909 238.86585 545.87889 241.88525 546.57893 244.89596 L 546.57893 244.89597 C 547.48544 248.34332 547.54652 252.42286 547.09302 256.71415 C 546.87842 258.77123 546.47798 260.88253 545.92885 263.04115 Z M 542.71091 236.11522 C 542.71091 236.11522 542.73681 236.08232 542.73681 236.08232 C 551.80749 224.43577 555.50676 208.26896 555.93621 191.40577 C 549.37912 193.89731 543.24713 196.9953 537.4984 200.40935 C 529.86641 205.28469 522.01642 208.5913 513.55784 209.99226 C 517.66791 213.51554 521.58757 217.08594 525.27114 220.77996 L 525.27115 220.77996 C 532.82452 225.59802 539.33272 230.47762 542.70375 236.10424 L 542.70375 236.10424 C 542.70375 236.10424 542.71075 236.11514 542.71075 236.11514 Z M 513.5578 209.99229 C 513.4831 198.89742 513.78143 191.29425 515.60904 187.60777 C 519.00856 184.95477 522.57007 182.56251 526.28692 180.3989 C 520.42827 177.96437 511.89306 171.77831 500.45255 163.29976 C 499.64019 173.88942 497.89133 184.6631 495.75028 195.61094 C 501.9642 200.447 507.93893 205.17562 513.5578 209.99229 Z M 500.45255 163.29976 C 508.70318 157.75539 517.73283 153.34403 527.44804 149.61387 C 532.65805 147.31837 537.84004 144.56745 542.80474 141.18532 C 529.58856 131.82998 514.88507 125.58824 500.76974 126.61929 C 500.3288 126.65409 499.8895 126.69589 499.45206 126.74457 C 499.49336 126.84919 499.53406 126.95438 499.57415 127.0601 C 501.67902 131.78293 501.53072 138.6361 500.86463 146.33703 L 500.86463 146.33703 C 501.05621 151.93677 500.89043 157.59153 500.45255 163.29976 Z M 499.45206 126.74457 C 504.90106 122.63336 509.56696 117.03604 512.58895 110.16878 C 515.64158 103.23414 516.98619 95.025703 516.37806 86.417297 C 516.37806 86.417297 516.37806 86.417295 516.37806 86.417295 C 516.32366 85.676097 516.25639 84.932222 516.17651 84.186043 C 499.35269 89.544793 488.10167 101.16251 480.48452 113.62353 C 485.72091 114.77024 490.29012 116.24019 493.20688 118.59414 C 494.66609 119.6585 495.95662 120.87534 496.92811 122.17036 L 496.92811 122.17036 C 497.92216 123.4283 498.76676 125.00762 499.45206 126.74457 Z M 480.48452 113.62353 C 480.38313 113.08375 480.2747 112.54365 480.15942 112.00346 C 477.02687 97.877915 469.45099 84.091792 459.75561 71.423922 C 458.29498 74.183655 456.94309 76.967828 455.68684 79.76579 C 450.39413 91.508933 446.71496 103.50432 444.32105 115.50896 C 449.23927 114.36098 454.15986 113.51338 459.05125 113.02929 C 466.49582 112.34643 473.56529 112.28193 479.89122 113.49555 L 479.89122 113.49555 C 480.0899 113.53775 480.28768 113.58045 480.48452 113.62353 Z M 444.32105 115.50896 C 439.66736 109.7645 434.52471 104.25423 428.98929 99.005575 C 423.04332 93.367849 416.63882 88.022677 409.77727 83.04802 C 407.79439 95.211403 406.95736 107.28165 407.33981 119.05121 C 406.93678 122.56871 406.19775 126.01115 405.13866 129.36048 C 407.34479 128.74885 409.57552 128.15039 411.82731 127.56292 L 411.82731 127.56292 C 419.12048 123.71061 426.87225 120.55554 434.89054 118.06525 L 434.89054 118.06525 C 438.02756 117.10117 441.17382 116.24356 444.32105 115.50896 Z M 405.13866 129.36048 C 391.40934 121.2233 383.75829 115.05861 381.5954 112.41574 C 381.4272 110.97359 381.29137 109.52585 381.18558 108.07203 C 377.44052 111.3916 368.86904 115.2926 357.77219 121.2534 C 364.82565 126.11029 371.80715 131.85284 378.95865 137.90466 C 387.07889 134.71855 395.89264 131.92386 405.13866 129.36048 Z M 357.77219 121.2534 C 355.55482 106.12468 355.91264 90.420192 355.76426 73.47812 C 355.58878 73.587996 355.41296 73.698455 355.23678 73.8095 C 355.23678 73.8095 355.23678 73.809502 355.23678 73.809502 C 344.03265 79.401633 334.40989 87.462382 329.47612 97.246786 C 329.47612 97.246786 329.47612 97.246788 329.47612 97.246788 C 327.86607 100.46007 326.7495 103.82535 326.12692 107.22959 C 326.87745 107.19979 327.62005 107.22759 328.33549 107.31549 L 328.33549 107.31549 C 330.62015 107.46599 333.37699 108.52804 336.38653 109.99511 L 336.38653 109.99511 C 343.74188 112.5082 350.79227 116.44714 357.77219 121.25338 Z M 326.12692 107.22959 C 324.67791 102.0369 321.90803 97.050874 317.98702 92.729427 C 311.54221 85.646251 302.32099 80.606409 291.98203 77.207716 C 291.65033 89.363705 294.61111 100.68905 298.54578 110.90036 C 300.08141 114.87332 301.79978 118.72272 303.66662 122.46932 C 304.74027 121.19404 305.83603 119.96753 306.95845 118.79501 C 312.70391 113.26035 317.80126 108.6564 322.39924 107.84062 L 322.39924 107.84062 C 323.60447 107.48796 324.87669 107.27922 326.12692 107.22959 Z M 303.66662 122.46932 C 288.98874 118.50951 272.89444 117.36272 256.70153 117.35327 C 258.81154 121.21303 261.01022 124.98706 263.26419 128.69558 C 269.25536 138.20976 275.18987 147.80923 280.25272 158.22092 C 283.51172 153.32106 286.41861 148.47887 289.12141 143.81133 C 293.79639 135.9492 298.47283 128.63853 303.66662 122.46932 Z M 280.25272 158.22092 C 273.71243 158.07818 267.21878 157.7079 260.87086 156.92106 C 251.38059 155.76272 241.98683 153.64521 235.38806 148.11012 C 235.38805 148.11011 235.41536 148.16762 235.41526 148.16762 C 235.41526 148.16762 235.41527 148.16762 235.41527 148.16762 C 238.57457 153.8202 238.82551 160.85707 238.62478 167.94769 C 238.62478 167.94769 238.62478 167.94769 238.62478 167.94769 C 238.32369 176.41206 238.28648 184.87189 240.23807 192.57529 C 242.34455 191.16444 245.13245 189.7834 248.42234 188.16114 C 251.79288 186.61447 255.92737 184.3483 260.52612 180.98434 L 260.52612 180.98434 C 266.38342 176.32419 270.77144 171.46384 274.04707 166.9815 L 274.04707 166.9815 C 276.26026 164.05729 278.31849 161.12894 280.25268 158.22091 Z " style="stroke: none; stroke-linecap: butt; stroke-width: 1; fill: rgb(0%,28%,0%); fill-rule: evenodd;"/>
						</g>
						<g transform="">
							<path d="M 86.22994 705.12826 C 113.37049 405.42899 543.65523 454.44072 544.39797 451.78891 L 494.98769 514.69253 C 494.98769 514.69253 565.68623 690.65068 642.18435 701.27618 C 686.54562 707.43791 525.0163 687.20615 366.00293 686.8097 C 234.80722 686.4826 101.49242 705.63796 86.22994 705.12826 Z " style="stroke: rgb(0%,0%,0%); stroke-linecap: butt; stroke-width: 1.99338639; fill: rgb(0%,0%,0%); fill-rule: evenodd;"/>
						</g>
						<g transform="">
							<path d="M 202.85915 575.39804 C 209.818661 583.315977 205.751194 593.454328 193.7644 598.06713 C 181.777604 602.679935 166.390572 600.028133 159.3594 592.13777 C 152.328228 584.247407 156.303713 574.0932 168.24848 569.43323 C 180.193241 564.77326 195.604032 567.364359 202.70661 575.22686 Z " style="stroke: none; stroke-linecap: butt; stroke-width: 0; fill: rgb(100%,100%,100%); fill-rule: evenodd;"/>
							<path d="M 202.85915 575.39804 C 209.818661 583.315977 205.751194 593.454328 193.7644 598.06713 C 181.777604 602.679935 166.390572 600.028133 159.3594 592.13777 C 152.328228 584.247407 156.303713 574.0932 168.24848 569.43323 C 180.193241 564.77326 195.604032 567.364359 202.70661 575.22686 " style="stroke: none; stroke-linecap: butt; stroke-width: 2.0; fill: none; fill-rule: evenodd;"/>
						</g>
						<g transform="">
							<path d="M 246.94632 537.54422 C 253.905831 545.462157 249.838364 555.600508 237.85157 560.21331 C 225.864776 564.826111 210.477751 562.174309 203.44658 554.28395 C 196.415406 546.393589 200.390887 536.239382 212.33565 531.57941 C 224.280411 526.91944 239.691202 529.510539 246.79378 537.37304 Z " style="stroke: none; stroke-linecap: butt; stroke-width: 0; fill: rgb(100%,100%,100%); fill-rule: evenodd;"/>
							<path d="M 246.94632 537.54422 C 253.905831 545.462157 249.838364 555.600508 237.85157 560.21331 C 225.864776 564.826111 210.477751 562.174309 203.44658 554.28395 C 196.415406 546.393589 200.390887 536.239382 212.33565 531.57941 C 224.280411 526.91944 239.691202 529.510539 246.79378 537.37304 " style="stroke: none; stroke-linecap: butt; stroke-width: 2.0; fill: none; fill-rule: evenodd;"/>
						</g>
						<g transform="">
							<path d="M 275.34915 578.31033 C 282.308661 586.228267 278.241194 596.366618 266.2544 600.97942 C 254.267606 605.592221 238.880581 602.940419 231.84941 595.05006 C 224.818246 587.159701 228.793726 577.005502 240.73848 572.34553 C 252.683243 567.685555 268.094041 570.276655 275.19662 578.13916 Z " style="stroke: none; stroke-linecap: butt; stroke-width: 0; fill: rgb(100%,100%,100%); fill-rule: evenodd;"/>
							<path d="M 275.34915 578.31033 C 282.308661 586.228267 278.241194 596.366618 266.2544 600.97942 C 254.267606 605.592221 238.880581 602.940419 231.84941 595.05006 C 224.818246 587.159701 228.793726 577.005502 240.73848 572.34553 C 252.683243 567.685555 268.094041 570.276655 275.19662 578.13916 " style="stroke: none; stroke-linecap: butt; stroke-width: 2.0; fill: none; fill-rule: evenodd;"/>
						</g>
						<g transform="">
							<path d="M 238.42537 615.85446 C 245.384881 623.772397 241.317414 633.910748 229.33062 638.52355 C 217.343826 643.136351 201.956801 640.484549 194.92563 632.59419 C 187.894456 624.703829 191.869937 614.549622 203.8147 609.88965 C 215.759465 605.229682 231.170257 607.820785 238.27283 615.68329 Z " style="stroke: none; stroke-linecap: butt; stroke-width: 0; fill: rgb(100%,100%,100%); fill-rule: evenodd;"/>
							<path d="M 238.42537 615.85446 C 245.384881 623.772397 241.317414 633.910748 229.33062 638.52355 C 217.343826 643.136351 201.956801 640.484549 194.92563 632.59419 C 187.894456 624.703829 191.869937 614.549622 203.8147 609.88965 C 215.759465 605.229682 231.170257 607.820785 238.27283 615.68329 " style="stroke: none; stroke-linecap: butt; stroke-width: 2.0; fill: none; fill-rule: evenodd;"/>
						</g>
						<g transform="">
							<path d="M 168.6991 615.26132 C 175.658611 623.179257 171.591144 633.317608 159.60435 637.93041 C 147.617554 642.543215 132.230522 639.891413 125.19935 632.00105 C 118.168178 624.110687 122.143663 613.95648 134.08843 609.29651 C 146.033195 604.636542 161.443987 607.227645 168.54656 615.09015 Z " style="stroke: none; stroke-linecap: butt; stroke-width: 0; fill: rgb(100%,100%,100%); fill-rule: evenodd;"/>
							<path d="M 168.6991 615.26132 C 175.658611 623.179257 171.591144 633.317608 159.60435 637.93041 C 147.617554 642.543215 132.230522 639.891413 125.19935 632.00105 C 118.168178 624.110687 122.143663 613.95648 134.08843 609.29651 C 146.033195 604.636542 161.443987 607.227645 168.54656 615.09015 " style="stroke: none; stroke-linecap: butt; stroke-width: 2.0; fill: none; fill-rule: evenodd;"/>
						</g>
						<g transform="">
							<path d="M 211.535 659.07291 C 218.494513 666.990845 214.427051 677.129196 202.44026 681.742 C 190.453464 686.354805 175.066432 683.703003 168.03526 675.81264 C 161.004086 667.922279 164.979567 657.768072 176.92433 653.1081 C 188.869093 648.448125 204.279891 651.039225 211.38247 658.90173 Z " style="stroke: none; stroke-linecap: butt; stroke-width: 0; fill: rgb(100%,100%,100%); fill-rule: evenodd;"/>
							<path d="M 211.535 659.07291 C 218.494513 666.990845 214.427051 677.129196 202.44026 681.742 C 190.453464 686.354805 175.066432 683.703003 168.03526 675.81264 C 161.004086 667.922279 164.979567 657.768072 176.92433 653.1081 C 188.869093 648.448125 204.279891 651.039225 211.38247 658.90173 " style="stroke: none; stroke-linecap: butt; stroke-width: 2.0; fill: none; fill-rule: evenodd;"/>
						</g>
						<g transform="">
							<path d="M 151.5318 657.33768 C 158.491311 665.255617 154.423844 675.393968 142.43705 680.00677 C 130.450256 684.619571 115.063231 681.967769 108.03206 674.07741 C 101.000886 666.187049 104.976367 656.032842 116.92113 651.37287 C 128.865891 646.7129 144.276682 649.303999 151.37926 657.1665 Z " style="stroke: none; stroke-linecap: butt; stroke-width: 0; fill: rgb(100%,100%,100%); fill-rule: evenodd;"/>
							<path d="M 151.5318 657.33768 C 158.491311 665.255617 154.423844 675.393968 142.43705 680.00677 C 130.450256 684.619571 115.063231 681.967769 108.03206 674.07741 C 101.000886 666.187049 104.976367 656.032842 116.92113 651.37287 C 128.865891 646.7129 144.276682 649.303999 151.37926 657.1665 " style="stroke: none; stroke-linecap: butt; stroke-width: 2.0; fill: none; fill-rule: evenodd;"/>
						</g>
						<g transform="">
							<path d="M 451.64563 589.66727 C 458.605141 597.585207 454.537674 607.723558 442.55088 612.33636 C 430.564086 616.949161 415.177061 614.297359 408.14589 606.407 C 401.114716 598.516639 405.090197 588.362432 417.03496 583.70246 C 428.979721 579.04249 444.390512 581.633589 451.49309 589.49609 Z " style="stroke: none; stroke-linecap: butt; stroke-width: 0; fill: rgb(100%,100%,100%); fill-rule: evenodd;"/>
							<path d="M 451.64563 589.66727 C 458.605141 597.585207 454.537674 607.723558 442.55088 612.33636 C 430.564086 616.949161 415.177061 614.297359 408.14589 606.407 C 401.114716 598.516639 405.090197 588.362432 417.03496 583.70246 C 428.979721 579.04249 444.390512 581.633589 451.49309 589.49609 " style="stroke: none; stroke-linecap: butt; stroke-width: 2.0; fill: none; fill-rule: evenodd;"/>
						</g>
						<g transform="">
							<path d="M 476.05704 624.89731 C 483.016551 632.815247 478.949084 642.953598 466.96229 647.5664 C 454.975496 652.179201 439.588471 649.527399 432.5573 641.63704 C 425.526126 633.746679 429.501607 623.592472 441.44637 618.9325 C 453.391131 614.27253 468.801922 616.863629 475.9045 624.72613 Z " style="stroke: none; stroke-linecap: butt; stroke-width: 0; fill: rgb(100%,100%,100%); fill-rule: evenodd;"/>
							<path d="M 476.05704 624.89731 C 483.016551 632.815247 478.949084 642.953598 466.96229 647.5664 C 454.975496 652.179201 439.588471 649.527399 432.5573 641.63704 C 425.526126 633.746679 429.501607 623.592472 441.44637 618.9325 C 453.391131 614.27253 468.801922 616.863629 475.9045 624.72613 " style="stroke: none; stroke-linecap: butt; stroke-width: 2.0; fill: none; fill-rule: evenodd;"/>
						</g>
						<g transform="">
							<path d="M 506.57809 664.41617 C 513.537603 672.334105 509.470141 682.472456 497.48335 687.08526 C 485.496554 691.698065 470.109522 689.046263 463.07835 681.1559 C 456.047176 673.265539 460.022657 663.111332 471.96742 658.45136 C 483.912183 653.791385 499.322981 656.382485 506.42556 664.24499 Z " style="stroke: none; stroke-linecap: butt; stroke-width: 0; fill: rgb(100%,100%,100%); fill-rule: evenodd;"/>
							<path d="M 506.57809 664.41617 C 513.537603 672.334105 509.470141 682.472456 497.48335 687.08526 C 485.496554 691.698065 470.109522 689.046263 463.07835 681.1559 C 456.047176 673.265539 460.022657 663.111332 471.96742 658.45136 C 483.912183 653.791385 499.322981 656.382485 506.42556 664.24499 " style="stroke: none; stroke-linecap: butt; stroke-width: 2.0; fill: none; fill-rule: evenodd;"/>
						</g>
						<g transform="">
							<path d="M 515.92306 588.08548 C 522.882573 596.003415 518.815111 606.141766 506.82832 610.75457 C 494.841524 615.367375 479.454492 612.715573 472.42332 604.82521 C 465.392148 596.934847 469.367633 586.78064 481.3124 582.12067 C 493.257161 577.4607 508.667952 580.051799 515.77053 587.9143 Z " style="stroke: none; stroke-linecap: butt; stroke-width: 0; fill: rgb(100%,100%,100%); fill-rule: evenodd;"/>
							<path d="M 515.92306 588.08548 C 522.882573 596.003415 518.815111 606.141766 506.82832 610.75457 C 494.841524 615.367375 479.454492 612.715573 472.42332 604.82521 C 465.392148 596.934847 469.367633 586.78064 481.3124 582.12067 C 493.257161 577.4607 508.667952 580.051799 515.77053 587.9143 " style="stroke: none; stroke-linecap: butt; stroke-width: 2.0; fill: none; fill-rule: evenodd;"/>
						</g>
						<g transform="">
							<path d="M 541.25461 626.84018 C 548.214121 634.758117 544.146654 644.896468 532.15986 649.50927 C 520.173066 654.122071 504.786041 651.470269 497.75487 643.57991 C 490.723696 635.689549 494.699177 625.535342 506.64394 620.87537 C 518.588701 616.2154 533.999492 618.806499 541.10207 626.669 Z " style="stroke: none; stroke-linecap: butt; stroke-width: 0; fill: rgb(100%,100%,100%); fill-rule: evenodd;"/>
							<path d="M 541.25461 626.84018 C 548.214121 634.758117 544.146654 644.896468 532.15986 649.50927 C 520.173066 654.122071 504.786041 651.470269 497.75487 643.57991 C 490.723696 635.689549 494.699177 625.535342 506.64394 620.87537 C 518.588701 616.2154 533.999492 618.806499 541.10207 626.669 " style="stroke: none; stroke-linecap: butt; stroke-width: 2.0; fill: none; fill-rule: evenodd;"/>
						</g>
						<g transform="">
							<path d="M 569.76157 662.06406 C 576.721081 669.981997 572.653614 680.120348 560.66682 684.73315 C 548.680024 689.345955 533.292992 686.694153 526.26182 678.80379 C 519.230648 670.913427 523.206133 660.75922 535.1509 656.09925 C 547.095661 651.43928 562.506452 654.030379 569.60903 661.89288 Z " style="stroke: none; stroke-linecap: butt; stroke-width: 0; fill: rgb(100%,100%,100%); fill-rule: evenodd;"/>
							<path d="M 569.76157 662.06406 C 576.721081 669.981997 572.653614 680.120348 560.66682 684.73315 C 548.680024 689.345955 533.292992 686.694153 526.26182 678.80379 C 519.230648 670.913427 523.206133 660.75922 535.1509 656.09925 C 547.095661 651.43928 562.506452 654.030379 569.60903 661.89288 " style="stroke: none; stroke-linecap: butt; stroke-width: 2.0; fill: none; fill-rule: evenodd;"/>
						</g>
						<g transform="">
							<path d="M 496.81189 546.9581 C 503.771401 554.876037 499.703934 565.014388 487.71714 569.62719 C 475.730346 574.239991 460.343321 571.588189 453.31215 563.69783 C 446.280976 555.807469 450.256457 545.653262 462.20122 540.99329 C 474.145981 536.33332 489.556772 538.924419 496.65935 546.78692 Z " style="stroke: none; stroke-linecap: butt; stroke-width: 0; fill: rgb(100%,100%,100%); fill-rule: evenodd;"/>
							<path d="M 496.81189 546.9581 C 503.771401 554.876037 499.703934 565.014388 487.71714 569.62719 C 475.730346 574.239991 460.343321 571.588189 453.31215 563.69783 C 446.280976 555.807469 450.256457 545.653262 462.20122 540.99329 C 474.145981 536.33332 489.556772 538.924419 496.65935 546.78692 " style="stroke: none; stroke-linecap: butt; stroke-width: 2.0; fill: none; fill-rule: evenodd;"/>
						</g>
						<g transform="">
							<path d="M 436.46362 545.14792 C 443.423133 553.065855 439.355671 563.204206 427.36888 567.81701 C 415.382084 572.429815 399.995052 569.778013 392.96388 561.88765 C 385.932706 553.997289 389.908187 543.843082 401.85295 539.18311 C 413.797713 534.523135 429.208511 537.114235 436.31109 544.97674 Z " style="stroke: none; stroke-linecap: butt; stroke-width: 0; fill: rgb(100%,100%,100%); fill-rule: evenodd;"/>
							<path d="M 436.46362 545.14792 C 443.423133 553.065855 439.355671 563.204206 427.36888 567.81701 C 415.382084 572.429815 399.995052 569.778013 392.96388 561.88765 C 385.932706 553.997289 389.908187 543.843082 401.85295 539.18311 C 413.797713 534.523135 429.208511 537.114235 436.31109 544.97674 " style="stroke: none; stroke-linecap: butt; stroke-width: 2.0; fill: none; fill-rule: evenodd;"/>
						</g>
						<g transform="">
							<path d="M 473.29575 505.0397 C 480.255261 512.957637 476.187794 523.095988 464.201 527.70879 C 452.214204 532.321595 436.827172 529.669793 429.796 521.77943 C 422.764838 513.889069 426.740322 503.73487 438.68508 499.0749 C 450.629841 494.41493 466.040632 497.006029 473.14321 504.86853 Z " style="stroke: none; stroke-linecap: butt; stroke-width: 0; fill: rgb(100%,100%,100%); fill-rule: evenodd;"/>
							<path d="M 473.29575 505.0397 C 480.255261 512.957637 476.187794 523.095988 464.201 527.70879 C 452.214204 532.321595 436.827172 529.669793 429.796 521.77943 C 422.764838 513.889069 426.740322 503.73487 438.68508 499.0749 C 450.629841 494.41493 466.040632 497.006029 473.14321 504.86853 " style="stroke: none; stroke-linecap: butt; stroke-width: 2.0; fill: none; fill-rule: evenodd;"/>
						</g>
						<g transform="">
							<path d="M 440.3262 464.96359 C 447.285711 472.881527 443.218244 483.019878 431.23145 487.63268 C 419.244656 492.245481 403.857631 489.593679 396.82646 481.70332 C 389.795296 473.812961 393.770776 463.658762 405.71553 458.99879 C 417.660293 454.338815 433.071091 456.929915 440.17367 464.79242 Z " style="stroke: none; stroke-linecap: butt; stroke-width: 0; fill: rgb(100%,100%,100%); fill-rule: evenodd;"/>
							<path d="M 440.3262 464.96359 C 447.285711 472.881527 443.218244 483.019878 431.23145 487.63268 C 419.244656 492.245481 403.857631 489.593679 396.82646 481.70332 C 389.795296 473.812961 393.770776 463.658762 405.71553 458.99879 C 417.660293 454.338815 433.071091 456.929915 440.17367 464.79242 " style="stroke: none; stroke-linecap: butt; stroke-width: 2.0; fill: none; fill-rule: evenodd;"/>
						</g>
						<g transform="">
							<path d="M 503.85373 467.0759 C 510.813241 474.993837 506.745774 485.132188 494.75898 489.74499 C 482.772186 494.357791 467.385161 491.705989 460.35399 483.81563 C 453.322816 475.925269 457.298297 465.771062 469.24306 461.11109 C 481.187821 456.45112 496.598612 459.042219 503.70119 466.90472 Z " style="stroke: none; stroke-linecap: butt; stroke-width: 0; fill: rgb(100%,100%,100%); fill-rule: evenodd;"/>
							<path d="M 503.85373 467.0759 C 510.813241 474.993837 506.745774 485.132188 494.75898 489.74499 C 482.772186 494.357791 467.385161 491.705989 460.35399 483.81563 C 453.322816 475.925269 457.298297 465.771062 469.24306 461.11109 C 481.187821 456.45112 496.598612 459.042219 503.70119 466.90472 " style="stroke: none; stroke-linecap: butt; stroke-width: 2.0; fill: none; fill-rule: evenodd;"/>
						</g>
						<g transform="">
							<path d="M 272.88923 475.1926 C 249.5995 473.74241 220.34023 470.15722 206.50977 467.05904 C 182.7085 461.72727 167.00062 453.93092 156.85839 442.41538 C 149.17814 433.69518 146.45488 426.26992 146.43107 413.98424 C 146.39057 393.10603 158.30045 367.40335 179.04301 343.60421 C 181.33508 340.97438 184.31205 336.39202 185.65851 333.42118 C 187.00495 330.45035 190.2217 324.00854 192.80684 319.10604 L 197.50709 310.19243 L 185.09169 295.99293 C 171.89369 280.89837 166.93816 274.3728 160.75951 263.95172 C 158.64384 260.38338 155.68186 255.63912 154.17732 253.40891 C 150.83744 248.4581 151.74292 243.91934 151.76411 239.34482 C 151.80721 230.03795 159.35999 219.08876 176.35149 205.75732 C 183.9765 199.77479 185.26751 196.50253 207.81745 195.46598 C 217.44595 195.02339 226.62104 194.24369 228.20654 193.73331 C 235.41052 191.41438 244.84951 184.26161 250.61479 176.75257 C 254.02604 172.30954 256.0329 168.71934 264.20447 152.44108 C 276.45845 128.03046 288.62349 108.99207 298.80239 98.295055 C 312.21906 84.195481 321.73012 80.669203 332.9438 85.636938 C 345.4195 91.163765 356.20875 99.136245 369.91993 112.95971 L 376.86457 119.96121 L 383.25267 117.51198 C 386.76612 116.1649 393.85679 113.81712 399.00971 112.29469 C 404.16263 110.77226 413.08116 107.69978 418.82865 105.46696 C 453.3846 92.042345 489.1335 93.052595 504.09938 107.87664 C 507.76083 111.5034 510.65956 117.64792 511.34979 123.24557 C 512.20656 130.19372 510.4836 158.64213 508.52557 169.87729 C 505.43202 187.6281 505.00624 185.29608 512.42691 191.24541 C 515.95881 194.07702 522.89624 200.28107 527.84341 205.03218 C 532.79058 209.78329 538.84529 215.29027 541.29832 217.26992 C 547.45574 222.23909 553.71062 229.99217 556.34114 235.91589 C 560.93549 246.26195 561.11011 255.50574 556.974 269.41722 C 555.61327 273.99393 553.60678 281.93535 552.51514 287.06485 C 551.42349 292.19434 549.17516 300.97621 547.51884 306.58012 L 544.50737 316.76906 L 549.8538 323.20534 C 552.79435 326.7453 557.1273 332.25196 559.48256 335.44235 C 561.83784 338.63274 565.97238 343.09025 568.67043 345.34792 C 587.52833 361.12778 598.8105 383.0847 596.35376 399.22413 C 595.15744 407.08323 592.35166 412.80788 585.98857 420.3723 C 572.69845 436.17153 548.21677 450.16752 515.4009 460.72676 C 508.11155 463.07227 507.05295 463.18857 486.57336 463.89356 C 455.92158 464.9487 448.06829 465.5008 389.64076 470.70818 C 372.2001 472.26258 352.41721 473.91664 345.67877 474.38387 C 328.41052 475.58121 286.5918 476.04583 272.88923 475.1926 Z " style="stroke: none; stroke-linecap: butt; stroke-width: 2.0; fill: rgb(0%,28%,0%); fill-rule: evenodd;"/>
						</g>
						<g transform="">
							<path d="M 252.27553 375.37148 C 232.9334 377.95937 197.93721 358.61887 195.11292 359.80046 C 193.76305 360.3652 238.76805 381.40811 235.03557 382.31076 C 217.5116 386.54868 198.30813 387.33001 180.35355 389.37261 L 247.35355 393.37261 L 179.35355 409.37261 C 202.51997 408.68539 230.69955 401.95211 249.10355 406.62261 C 246.5081 397.12059 249.29652 383.94442 252.27553 375.37148 Z " style="stroke: rgb(100%,100%,100%); stroke-linecap: round; stroke-width: 4.94639778; fill: rgb(100%,100%,100%); fill-rule: evenodd;"/>
						</g>
						<g transform="">
							<path d="M 309.65846 440.69367 L 203.3483 402.38462 L 252.10616 439.62056 L 194.33813 430.14541 L 278.72241 483.3681 Z " style="stroke: none; stroke-linecap: butt; stroke-width: 1; fill: rgb(72%,23%,23%); fill-rule: evenodd;"/>
						</g>
						<g transform=" matrix(0.887804,0,0,0.887804,29.358315,-235.49724)">
							<g transform=" matrix(0.618968,-0.785416,0.785416,0.618968,0,0)">
								<g transform="">
									<path d="M -147.74575 567.81045 C -147.584099 577.973095 -153.609623 587.215839 -162.97342 591.16866 C -172.337215 595.12148 -183.163216 592.992419 -190.33283 585.78811 C -197.502447 578.583796 -199.579217 567.747635 -195.58123 558.40303 C -191.583248 549.058429 -182.311524 543.077599 -172.14978 543.28831 Z " style="stroke: none; stroke-linecap: round; stroke-width: 0; fill: rgb(0%,28%,0%); fill-rule: evenodd;"/>
									<path d="M -147.74575 567.81045 C -147.584099 577.973095 -153.609623 587.215839 -162.97342 591.16866 C -172.337215 595.12148 -183.163216 592.992419 -190.33283 585.78811 C -197.502447 578.583796 -199.579217 567.747635 -195.58123 558.40303 C -191.583248 549.058429 -182.311524 543.077599 -172.14978 543.28831 " style="stroke: rgb(100%,100%,100%); stroke-linecap: round; stroke-width: 20.33586311; fill: none; fill-rule: evenodd;"/>
								</g>
							</g>
							<g transform=" matrix(0.788736,-0.614733,0.614733,0.788736,0,0)">
								<g transform="">
									<path d="M 65.341771 652.4128 C 65.503422 662.575444 59.4779 671.818188 50.114104 675.77101 C 40.750308 679.723832 29.924304 677.594772 22.754689 670.39046 C 15.585075 663.186149 13.508305 652.349993 17.506286 643.00539 C 21.504269 633.660787 30.775996 627.679956 40.937742 627.89067 Z " style="stroke: none; stroke-linecap: round; stroke-width: 0; fill: rgb(0%,28%,0%); fill-rule: evenodd;"/>
									<path d="M 65.341771 652.4128 C 65.503422 662.575444 59.4779 671.818188 50.114104 675.77101 C 40.750308 679.723832 29.924304 677.594772 22.754689 670.39046 C 15.585075 663.186149 13.508305 652.349993 17.506286 643.00539 C 21.504269 633.660787 30.775996 627.679956 40.937742 627.89067 " style="stroke: rgb(100%,100%,100%); stroke-linecap: round; stroke-width: 20.33586311; fill: none; fill-rule: evenodd;"/>
								</g>
							</g>
							<g transform=" matrix(0.714911,-0.699215,0.699215,0.714911,0,0)">
								<g transform="">
									<path d="M -94.166542 671.85567 C -94.004891 682.018314 -100.030414 691.261059 -109.39421 695.21388 C -118.758005 699.1667 -129.584006 697.037639 -136.75362 689.83333 C -143.923236 682.62902 -146.00001 671.792864 -142.00203 662.44826 C -138.004047 653.103655 -128.732317 647.122825 -118.57057 647.33354 Z " style="stroke: none; stroke-linecap: round; stroke-width: 0; fill: rgb(0%,28%,0%); fill-rule: evenodd;"/>
									<path d="M -94.166542 671.85567 C -94.004891 682.018314 -100.030414 691.261059 -109.39421 695.21388 C -118.758005 699.1667 -129.584006 697.037639 -136.75362 689.83333 C -143.923236 682.62902 -146.00001 671.792864 -142.00203 662.44826 C -138.004047 653.103655 -128.732317 647.122825 -118.57057 647.33354 " style="stroke: rgb(100%,100%,100%); stroke-linecap: round; stroke-width: 20.33586311; fill: none; fill-rule: evenodd;"/>
								</g>
							</g>
							<g transform=" matrix(0.406768,-0.913532,0.913532,0.406768,0,0)">
								<g transform="">
									<path d="M -371.41026 493.37145 C -371.248607 503.534092 -377.274127 512.776836 -386.63792 516.72966 C -396.001717 520.682485 -406.827724 518.553424 -413.99734 511.34911 C -421.166953 504.144798 -423.243722 493.308643 -419.24574 483.96404 C -415.247757 474.619435 -405.976027 468.638605 -395.81428 468.84932 Z " style="stroke: none; stroke-linecap: round; stroke-width: 0; fill: rgb(0%,28%,0%); fill-rule: evenodd;"/>
									<path d="M -371.41026 493.37145 C -371.248607 503.534092 -377.274127 512.776836 -386.63792 516.72966 C -396.001717 520.682485 -406.827724 518.553424 -413.99734 511.34911 C -421.166953 504.144798 -423.243722 493.308643 -419.24574 483.96404 C -415.247757 474.619435 -405.976027 468.638605 -395.81428 468.84932 " style="stroke: rgb(100%,100%,100%); stroke-linecap: round; stroke-width: 20.33586311; fill: none; fill-rule: evenodd;"/>
								</g>
							</g>
							<g transform=" matrix(0.888013,-0.459817,0.459817,0.888013,0,0)">
								<g transform="">
									<path d="M 192.16206 720.08333 C 192.323715 730.245978 186.29819 739.488728 176.93439 743.44155 C 167.570593 747.394375 156.744586 745.265314 149.57497 738.061 C 142.405353 730.856686 140.328583 720.020525 144.32657 710.67592 C 148.324553 701.331315 157.596283 695.350485 167.75803 695.5612 Z " style="stroke: none; stroke-linecap: round; stroke-width: 0; fill: rgb(0%,28%,0%); fill-rule: evenodd;"/>
									<path d="M 192.16206 720.08333 C 192.323715 730.245978 186.29819 739.488728 176.93439 743.44155 C 167.570593 747.394375 156.744586 745.265314 149.57497 738.061 C 142.405353 730.856686 140.328583 720.020525 144.32657 710.67592 C 148.324553 701.331315 157.596283 695.350485 167.75803 695.5612 " style="stroke: rgb(100%,100%,100%); stroke-linecap: round; stroke-width: 20.33586311; fill: none; fill-rule: evenodd;"/>
								</g>
							</g>
							<g transform=" matrix(0.406768,-0.913532,0.913532,0.406768,0,0)">
								<g transform="">
									<path d="M -418.74171 566.53652 C -418.580057 576.699162 -424.605577 585.941906 -433.96937 589.89473 C -443.333167 593.847555 -454.159174 591.718494 -461.32879 584.51418 C -468.498403 577.309868 -470.575172 566.473713 -466.57719 557.12911 C -462.579207 547.784505 -453.307477 541.803675 -443.14573 542.01439 Z " style="stroke: none; stroke-linecap: round; stroke-width: 0; fill: rgb(0%,28%,0%); fill-rule: evenodd;"/>
									<path d="M -418.74171 566.53652 C -418.580057 576.699162 -424.605577 585.941906 -433.96937 589.89473 C -443.333167 593.847555 -454.159174 591.718494 -461.32879 584.51418 C -468.498403 577.309868 -470.575172 566.473713 -466.57719 557.12911 C -462.579207 547.784505 -453.307477 541.803675 -443.14573 542.01439 " style="stroke: rgb(100%,100%,100%); stroke-linecap: round; stroke-width: 20.33586311; fill: none; fill-rule: evenodd;"/>
								</g>
							</g>
							<g transform=" matrix(0.888013,-0.459817,0.459817,0.888013,0,0)">
								<g transform="">
									<path d="M 112.87851 760.10982 C 113.040166 770.272468 107.014642 779.515217 97.650843 783.46804 C 88.287045 787.42086 77.46104 785.291795 70.291428 778.08748 C 63.121814 770.883169 61.045044 760.047013 65.043025 750.70241 C 69.041008 741.357806 78.312736 735.376976 88.474482 735.58769 Z " style="stroke: none; stroke-linecap: round; stroke-width: 0; fill: rgb(0%,28%,0%); fill-rule: evenodd;"/>
									<path d="M 112.87851 760.10982 C 113.040166 770.272468 107.014642 779.515217 97.650843 783.46804 C 88.287045 787.42086 77.46104 785.291795 70.291428 778.08748 C 63.121814 770.883169 61.045044 760.047013 65.043025 750.70241 C 69.041008 741.357806 78.312736 735.376976 88.474482 735.58769 " style="stroke: rgb(100%,100%,100%); stroke-linecap: round; stroke-width: 20.33586311; fill: none; fill-rule: evenodd;"/>
								</g>
							</g>
							<g transform=" matrix(0.714911,-0.699215,0.699215,0.714911,0,0)">
								<g transform="">
									<path d="M -198.85136 778.22609 C -198.689703 788.388736 -204.715224 797.631485 -214.07902 801.58431 C -223.442817 805.537135 -234.268824 803.408074 -241.43844 796.20376 C -248.608057 788.999446 -250.684827 778.163285 -246.68684 768.81868 C -242.688857 759.474075 -233.417127 753.493245 -223.25538 753.70396 Z " style="stroke: none; stroke-linecap: round; stroke-width: 0; fill: rgb(0%,28%,0%); fill-rule: evenodd;"/>
									<path d="M -198.85136 778.22609 C -198.689703 788.388736 -204.715224 797.631485 -214.07902 801.58431 C -223.442817 805.537135 -234.268824 803.408074 -241.43844 796.20376 C -248.608057 788.999446 -250.684827 778.163285 -246.68684 768.81868 C -242.688857 759.474075 -233.417127 753.493245 -223.25538 753.70396 " style="stroke: rgb(100%,100%,100%); stroke-linecap: round; stroke-width: 20.33586311; fill: none; fill-rule: evenodd;"/>
								</g>
							</g>
							<g transform=" matrix(0.992529,-0.122008,0.122008,0.992529,0,0)">
								<g transform="">
									<path d="M 459.65569 692.79867 C 459.817343 702.961312 453.791823 712.204056 444.42803 716.15688 C 435.064233 720.109705 424.238226 717.980644 417.06861 710.77633 C 409.898993 703.572016 407.822223 692.735855 411.82021 683.39125 C 415.818193 674.046645 425.089923 668.065815 435.25167 668.27653 Z " style="stroke: none; stroke-linecap: round; stroke-width: 0; fill: rgb(0%,28%,0%); fill-rule: evenodd;"/>
									<path d="M 459.65569 692.79867 C 459.817343 702.961312 453.791823 712.204056 444.42803 716.15688 C 435.064233 720.109705 424.238226 717.980644 417.06861 710.77633 C 409.898993 703.572016 407.822223 692.735855 411.82021 683.39125 C 415.818193 674.046645 425.089923 668.065815 435.25167 668.27653 " style="stroke: rgb(100%,100%,100%); stroke-linecap: round; stroke-width: 20.33586311; fill: none; fill-rule: evenodd;"/>
								</g>
							</g>
							<g transform=" matrix(0.992529,-0.122008,0.122008,0.992529,0,0)">
								<g transform="">
									<path d="M 402.95129 763.65218 C 403.112941 773.814825 397.087417 783.057569 387.72362 787.01039 C 378.359823 790.963215 367.533816 788.834154 360.3642 781.62984 C 353.194587 774.425528 351.117818 763.589373 355.1158 754.24477 C 359.113783 744.900165 368.385513 738.919335 378.54726 739.13005 Z " style="stroke: none; stroke-linecap: round; stroke-width: 0; fill: rgb(0%,28%,0%); fill-rule: evenodd;"/>
									<path d="M 402.95129 763.65218 C 403.112941 773.814825 397.087417 783.057569 387.72362 787.01039 C 378.359823 790.963215 367.533816 788.834154 360.3642 781.62984 C 353.194587 774.425528 351.117818 763.589373 355.1158 754.24477 C 359.113783 744.900165 368.385513 738.919335 378.54726 739.13005 " style="stroke: rgb(100%,100%,100%); stroke-linecap: round; stroke-width: 20.33586311; fill: none; fill-rule: evenodd;"/>
								</g>
							</g>
							<g transform=" matrix(-0.000634,-1,1,-0.000634,0,0)">
								<g transform="">
									<path d="M -612.64371 243.54323 C -612.482055 253.705878 -618.50758 262.948628 -627.87138 266.90145 C -637.235179 270.854272 -648.061187 268.725207 -655.2308 261.52089 C -662.400413 254.316578 -664.477182 243.480423 -660.4792 234.13582 C -656.481217 224.791215 -647.209487 218.810385 -637.04774 219.0211 Z " style="stroke: none; stroke-linecap: round; stroke-width: 0; fill: rgb(0%,28%,0%); fill-rule: evenodd;"/>
									<path d="M -612.64371 243.54323 C -612.482055 253.705878 -618.50758 262.948628 -627.87138 266.90145 C -637.235179 270.854272 -648.061187 268.725207 -655.2308 261.52089 C -662.400413 254.316578 -664.477182 243.480423 -660.4792 234.13582 C -656.481217 224.791215 -647.209487 218.810385 -637.04774 219.0211 " style="stroke: rgb(100%,100%,100%); stroke-linecap: round; stroke-width: 20.33586311; fill: none; fill-rule: evenodd;"/>
								</g>
							</g>
							<g transform=" matrix(-0.000634,-1,1,-0.000634,0,0)">
								<g transform="">
									<path d="M -688.50443 294.5454 C -688.342779 304.708045 -694.368303 313.950789 -703.7321 317.90361 C -713.095895 321.85643 -723.921896 319.727369 -731.09151 312.52306 C -738.261126 305.31875 -740.3379 294.482594 -736.33992 285.13799 C -732.341937 275.793385 -723.070207 269.812555 -712.90846 270.02327 Z " style="stroke: none; stroke-linecap: round; stroke-width: 0; fill: rgb(0%,28%,0%); fill-rule: evenodd;"/>
									<path d="M -688.50443 294.5454 C -688.342779 304.708045 -694.368303 313.950789 -703.7321 317.90361 C -713.095895 321.85643 -723.921896 319.727369 -731.09151 312.52306 C -738.261126 305.31875 -740.3379 294.482594 -736.33992 285.13799 C -732.341937 275.793385 -723.070207 269.812555 -712.90846 270.02327 " style="stroke: rgb(100%,100%,100%); stroke-linecap: round; stroke-width: 20.33586311; fill: none; fill-rule: evenodd;"/>
								</g>
							</g>
						</g>
						<g transform="">
							<path d="M 299.10693 504.0845 C 306.066443 512.002435 301.998981 522.140786 290.01219 526.75359 C 278.025394 531.366395 262.638362 528.714593 255.60719 520.82423 C 248.576026 512.933871 252.551506 502.779672 264.49626 498.1197 C 276.441023 493.459725 291.851821 496.050825 298.9544 503.91333 Z " style="stroke: none; stroke-linecap: butt; stroke-width: 0; fill: rgb(100%,100%,100%); fill-rule: evenodd;"/>
							<path d="M 299.10693 504.0845 C 306.066443 512.002435 301.998981 522.140786 290.01219 526.75359 C 278.025394 531.366395 262.638362 528.714593 255.60719 520.82423 C 248.576026 512.933871 252.551506 502.779672 264.49626 498.1197 C 276.441023 493.459725 291.851821 496.050825 298.9544 503.91333 " style="stroke: none; stroke-linecap: butt; stroke-width: 2.0; fill: none; fill-rule: evenodd;"/>
						</g>
						<g transform="">
							<path d="M 333.05017 543.46939 C 340.009681 551.387327 335.942214 561.525678 323.95542 566.13848 C 311.968626 570.751281 296.581601 568.099479 289.55043 560.20912 C 282.519256 552.318759 286.494737 542.164552 298.4395 537.50458 C 310.384265 532.844612 325.795057 535.435715 332.89763 543.29822 Z " style="stroke: none; stroke-linecap: butt; stroke-width: 0; fill: rgb(100%,100%,100%); fill-rule: evenodd;"/>
							<path d="M 333.05017 543.46939 C 340.009681 551.387327 335.942214 561.525678 323.95542 566.13848 C 311.968626 570.751281 296.581601 568.099479 289.55043 560.20912 C 282.519256 552.318759 286.494737 542.164552 298.4395 537.50458 C 310.384265 532.844612 325.795057 535.435715 332.89763 543.29822 " style="stroke: none; stroke-linecap: butt; stroke-width: 2.0; fill: none; fill-rule: evenodd;"/>
						</g>
						<g transform="">
							<path d="M 516.6047 688.24204 C 463.86881 690.61173 414.44256 691.3957 362.90871 678.94982 C 332.76227 676.13455 273.83662 696.57391 211.68826 697.19025 C 170.91205 700.38018 170.77738 683.78472 185.37106 660.27907 C 207.00266 625.91378 299.12074 578.13425 370.24416 537.81768 C 344.34918 537.10112 286.02859 519.70486 279.28424 491.86117 C 274.4572 472.98421 280.07661 450.43997 301.1738 444.47754 C 323.26857 438.1666 328.3647 436.38442 361.31392 446.23481 C 372.35585 446.60365 384.24247 459.41725 394.09363 465.65673 C 408.04038 481.64952 424.90275 494.04865 428.57824 522.70121 C 428.05206 535.37776 427.15025 548.05431 419.50334 560.73086 C 403.37393 577.07942 366.23338 601.78857 345.27162 610.69206 C 365.22618 604.32862 402.57367 583.49906 421.31832 574.15309 C 449.99043 617.89561 483.18823 653.27096 516.6047 688.24204 Z " style="stroke: rgb(0%,0%,0%); stroke-linecap: round; stroke-width: 12.43374538; fill: rgb(100%,100%,100%); fill-rule: evenodd;"/>
						</g>
						<g transform="">
							<path d="M 332.15963 463.80859 C 330.09633 467.58231 328.96621 469.56976 329.55948 475.79485 C 333.22086 480.09095 335.89238 484.29463 343.9106 478.9658 C 349.04566 474.53796 347.78525 471.5473 347.4632 467.51368 C 344.74522 461.42734 345.11318 459.36951 341.45109 458.41936 C 337.00843 457.65917 334.51587 461.9972 332.15963 463.80859 Z " style="stroke: none; stroke-linecap: butt; stroke-width: 1; fill: rgb(0%,0%,0%); fill-rule: evenodd;"/>
						</g>
						<g transform="">
							<path d="M 170.11959 432.73817 C 120.84243 429.56966 94.090893 417.05133 45.99559 410.33724 C 82.492989 411.51951 99.087924 414.95052 136.22331 412.30488 C 96.519912 399.16577 98.500509 395.73271 61.501686 380.56516 C 109.20091 396.37974 119.23149 393.60881 176.75295 401.43559 Z " style="stroke: none; stroke-linecap: butt; stroke-width: 1; fill: rgb(0%,28%,0%); fill-rule: evenodd;"/>
						</g>
						<g transform="">
							<path d="M 355.43728 161.05216 C 346.54373 154.06554 345.84146 145.67241 354.16189 135.72998 L 336.43809 151.4245 L 347.88123 125.63448 L 330.62888 145.67688 L 335.06167 119.86282 L 325.01881 141.93414 L 319.3996 119.72475 L 316.28077 145.3716 L 306.98852 121.09929 C 312.1611 143.67481 305.9176 150.5169 299.82669 164.88308 C 319.33531 155.92091 336.50804 151.08126 355.43728 161.05216 Z " style="stroke: rgb(100%,100%,100%); stroke-linecap: round; stroke-width: 3.95740938; fill: rgb(100%,100%,100%); fill-rule: evenodd;"/>
						</g>
						<g transform="">
							<path d="M 476.48209 173.90322 C 474.32469 166.84759 469.23609 161.04819 461.1639 156.52748 L 473.93571 134.59333 L 453.41855 150.91911 L 459.49712 125.08071 L 445.31491 148.91439 L 441.95084 123.47632 L 434.78049 147.5705 L 423.51431 127.164 C 422.51638 136.47308 424.90156 147.37745 407.66221 149.02797 C 428.25178 151.77539 464.98539 164.58304 476.48209 173.90322 Z " style="stroke: rgb(100%,100%,100%); stroke-linecap: round; stroke-width: 4.41672087; fill: rgb(100%,100%,100%); fill-rule: evenodd;"/>
						</g>
						<g transform="">
							<path d="M 468.70239 228.51104 C 475.57698 215.06953 474.61721 206.85093 477.07142 196.35634 L 481.818 225.54983 L 499.09519 206.92775 L 492.65605 230.64409 L 518.33403 218.16697 L 502.87389 235.21683 L 533.12549 236.83745 L 509.56795 242.42655 L 532.13085 255.38004 C 520.33473 249.65133 508.41011 248.76936 495.57139 262.86813 C 498.03037 233.92058 483.16167 231.88029 468.70239 228.51104 Z " style="stroke: rgb(100%,100%,100%); stroke-linecap: round; stroke-width: 4.35753345; fill: rgb(100%,100%,100%); fill-rule: evenodd;"/>
						</g>
						<g transform="">
							<path d="M 539.5 268.86221 L 484 287.86221 C 495.79595 293.90738 503.02545 296.99053 505.5 308.36221 L 539.5 298.36221 L 504.5 300.36221 L 534.5 286.36221 L 501.5 290.36221 Z " style="stroke: rgb(100%,100%,100%); stroke-linecap: round; stroke-width: 4.94639778; fill: rgb(100%,100%,100%); fill-rule: evenodd;"/>
						</g>
						<g transform="">
							<path d="M 527.05025 357.01907 C 539.15298 361.5922 544.21645 365.95124 565.67925 365.84433 L 515.05025 373.01907 Z " style="stroke: rgb(100%,100%,100%); stroke-linecap: round; stroke-width: 4.94639778; fill: rgb(100%,100%,100%); fill-rule: evenodd;"/>
						</g>
						<g transform="">
							<path d="M 489.61541 400.17122 C 509.99093 400.50602 531.62207 394.16412 551.8993 390.99969 C 534.13975 400.74877 514.66792 401.93645 495.96794 406.98339 C 511.06346 411.79906 525.70317 416.93714 543.79535 422.22155 C 524.80943 420.52165 506.76501 415.74937 492.09987 423.24 C 503.2131 428.88014 513.71267 434.62255 533.54855 438.80891 L 461.45284 435.93121 C 475.71641 433.56647 493.05926 409.25421 489.61541 400.17122 Z " style="stroke: rgb(100%,100%,100%); stroke-linecap: round; stroke-width: 4.94639778; fill: rgb(100%,100%,100%); fill-rule: evenodd;"/>
						</g>
						<g transform="">
							<path d="M 248.15944 267.46725 C 248.61873 249.42387 249.08887 247.35952 258.83407 238.7146 C 238.91917 235.3816 235.68969 225.98923 224.29231 217.90058 L 243.99891 243.32846 L 198.22875 229.34312 L 235.09916 248.41403 L 185.5148 248.41403 L 227.4708 254.771 C 225.29159 264.34105 210.4186 264.44345 195.05026 271.29912 C 211.26315 267.37111 235.33437 261.23178 248.15944 267.46725 Z " style="stroke: rgb(100%,100%,100%); stroke-linecap: round; stroke-width: 4.44686604; fill: rgb(100%,100%,100%); fill-rule: evenodd;"/>
						</g>
						<g transform="">
							<path d="M 269.59008 177.54233 C 273.29537 193.54487 274.50288 207.54801 286.24702 220.59039 C 279.05343 217.4325 277.53225 222.1498 264.69097 223.93203 C 270.96945 208.05482 265.91526 192.87987 269.59008 177.54233 Z " style="stroke: rgb(100%,100%,100%); stroke-linecap: round; stroke-width: 4.26737165; fill: rgb(100%,100%,100%); fill-rule: evenodd;"/>
						</g>
						<g transform="">
							<path d="M 235.24568 293.61492 C 205.70582 281.90202 202.06195 286.23479 202.06195 286.23479 L 232.52004 299.27471 Z " style="stroke: rgb(100%,100%,100%); stroke-linecap: round; stroke-width: 4.42769051; fill: rgb(100%,100%,100%); fill-rule: evenodd;"/>
						</g>
						<g transform="">
							<path d="M 99.223295 628.41638 C 79.158334 632.99546 63.173251 645.90196 52.024871 654.67949 C 64.164594 650.80127 78.695806 646.14868 91.533184 644.92324 C 98.353235 644.74996 98.129878 644.70706 97.334029 648.63632 L 112.99173 609.84407 C 109.57228 613.42617 104.62986 625.94787 99.223295 628.41638 Z " style="stroke: rgb(0%,0%,0%); stroke-linecap: butt; stroke-width: 0.45772466; fill: rgb(0%,0%,0%); fill-rule: evenodd;"/>
						</g>
					</g>
				</g>
			</g>
		</g>
	</g>
</svg>
