<?xml version="1.0" encoding="utf-8"?>
<!DOCTYPE svg
  PUBLIC '-//W3C//DTD SVG 1.0//EN'
  'http://www.w3.org/TR/2001/REC-SVG-20010904/DTD/svg10.dtd'>
<svg fill-rule="evenodd" height="400.0" preserveAspectRatio="xMinYMin meet" version="1.0" viewBox="0 0 300 400" width="300.0" xmlns="http://www.w3.org/2000/svg" xmlns:xlink="http://www.w3.org/1999/xlink">
	<title>...</title>
	<desc>...</desc>
	<clipPath id="clip">
		<rect height="400.0" width="300.0" x="0" y="0"/>
	</clipPath>
	<g id="group" style="clip-path: url(#clip)" transform="scale(1,-1) translate(0,-400)">
		<g transform="">
			<g transform=" matrix(1,0,0,-1,0,400)">
				<g transform=" matrix(1,0,0,1,0,-652.36216)">
					<rect height="400.77808000000005" rx="40.0" ry="40.0" style="stroke: none; stroke-linecap: round; stroke-width: 10.0; fill: rgb(96%,94%,92%); fill-rule: evenodd;" width="300.05896" x="0.0" y="652.28351"/>
					<g transform=" matrix(1,0,0,1,-0,-0.000001)">
						<g transform="">
							<path d="M -4.768783 775.07096 C -9.650184 741.99485 -16.84552 674.23676 -1.278872 652.0641 C 18.998297 625.94378 233.50094 631.63117 263.31435 653.90999 C 276.21398 662.64856 70.349579 663.12124 47.099353 691.74479 C 24.390958 719.11242 0.650608 818.18718 -4.768783 775.07096 Z " style="stroke: none; stroke-linecap: butt; stroke-width: 1; fill: rgb(100%,100%,100%); fill-rule: evenodd;"/>
						</g>
					</g>
					<g transform=" matrix(-1,0,0,-1,451.93806,1977.887)">
						<g transform="">
							<path d="M 151.73588 1025.0177 C 148.40905 1015.7039 141.48745 956.56381 157.05409 934.39115 C 177.33126 908.27083 376.48967 917.93319 388.60915 924.45931 C 399.68348 929.77633 210.00549 924.51821 183.75789 959.32577 C 162.1644 989.32637 157.25703 1041.5042 151.73588 1025.0177 Z " style="stroke: none; stroke-linecap: butt; stroke-width: 1; fill: rgb(0%,0%,0%); fill-rule: evenodd; fill-opacity: 0.19607843;"/>
						</g>
					</g>
				</g>
			</g>
		</g>
		<g transform=" matrix(0.8,0,0,0.8,30,40)">
			<g transform=" matrix(1,0,0,-1,0,400)">
				<g transform=" matrix(1,0,0,1,0,-652.36216)">
					<g transform="">
						<g transform="">
							<path d="M 275.30302 756.03454 C 275.30302 772.60141 272.34465 787.39326 266.42791 800.41009 C 260.51117 813.25787 252.73488 824.66872 243.09905 834.64265 C 233.63227 844.27848 222.72857 853.32264 210.38794 861.77513 C 198.04731 870.22762 184.94596 878.42653 171.08388 886.37186 L 171.08388 943.42614 L 125.69404 943.42614 L 125.69404 866.0859 C 136.68227 859.83106 148.51575 852.98455 161.19448 845.54636 C 174.04225 838.10817 184.52333 830.58546 192.63772 822.97823 C 202.4426 814.18764 210.04984 805.14348 215.45943 795.84575 C 220.86902 786.37896 223.57381 774.37643 223.57381 759.83816 C 223.57381 740.73555 217.0654 726.53537 204.04857 717.23764 C 191.2008 707.77085 174.5494 703.03746 154.09439 703.03746 C 121.36609 704.24453 74.750088 717.36821 46.432037 743.66383 L 43.896292 743.66383 L 43.896292 691.93462 C 75.114685 670.05792 125.21923 659.81769 157.64443 659.67622 C 193.99012 659.67622 222.64404 668.55133 243.6062 686.30154 C 264.73741 703.88271 275.30302 727.12705 275.30302 756.03454 Z M 175.14108 1044.856 L 123.41187 1044.856 L 123.41187 991.35173 L 175.14108 991.35173 Z " style="stroke: none; stroke-linecap: butt; stroke-width: 1; fill: rgb(84%,11%,11%); fill-rule: evenodd;"/>
						</g>
					</g>
				</g>
			</g>
		</g>
	</g>
</svg>
