<?xml version="1.0" encoding="utf-8"?>
<!DOCTYPE svg
  PUBLIC '-//W3C//DTD SVG 1.0//EN'
  'http://www.w3.org/TR/2001/REC-SVG-20010904/DTD/svg10.dtd'>
<svg fill-rule="evenodd" height="400.0" preserveAspectRatio="xMinYMin meet" version="1.0" viewBox="0 0 300 400" width="300.0" xmlns="http://www.w3.org/2000/svg" xmlns:xlink="http://www.w3.org/1999/xlink">
	<title>...</title>
	<desc>...</desc>
	<clipPath id="clip">
		<rect height="400.0" width="300.0" x="0" y="0"/>
	</clipPath>
	<g id="group" style="clip-path: url(#clip)" transform="scale(1,-1) translate(0,-400)">
		<g transform="">
			<g transform=" matrix(1,0,0,-1,0,400)">
				<g transform=" matrix(1,0,0,1,0,-652.36216)">
					<rect height="400.77808000000005" rx="40.0" ry="40.0" style="stroke: none; stroke-linecap: round; stroke-width: 10.0; fill: rgb(96%,94%,92%); fill-rule: evenodd;" width="300.05896" x="0.0" y="652.28351"/>
					<g transform=" matrix(1,0,0,1,-0,-0.000001)">
						<g transform="">
							<path d="M -4.768783 775.07096 C -9.650184 741.99485 -16.84552 674.23676 -1.278872 652.0641 C 18.998297 625.94378 233.50094 631.63117 263.31435 653.90999 C 276.21398 662.64856 70.349579 663.12124 47.099353 691.74479 C 24.390958 719.11242 0.650608 818.18718 -4.768783 775.07096 Z " style="stroke: none; stroke-linecap: butt; stroke-width: 1; fill: rgb(100%,100%,100%); fill-rule: evenodd;"/>
						</g>
					</g>
					<g transform=" matrix(-1,0,0,-1,451.93806,1977.887)">
						<g transform="">
							<path d="M 151.73588 1025.0177 C 148.40905 1015.7039 141.48745 956.56381 157.05409 934.39115 C 177.33126 908.27083 376.48967 917.93319 388.60915 924.45931 C 399.68348 929.77633 210.00549 924.51821 183.75789 959.32577 C 162.1644 989.32637 157.25703 1041.5042 151.73588 1025.0177 Z " style="stroke: none; stroke-linecap: butt; stroke-width: 1; fill: rgb(0%,0%,0%); fill-rule: evenodd; fill-opacity: 0.19607843;"/>
						</g>
					</g>
				</g>
			</g>
		</g>
		<g transform=" matrix(0.8,0,0,0.8,30,40)">
			<g transform=" matrix(1,0,0,-1,0,400)">
				<g transform=" matrix(1,0,0,1,0,-652.36216)">
					<g transform=" matrix(1,0,0,1,1034.3429,648.88567)">
						<g transform="">
							<path d="M -973.89996 230.33452 C -872.38987 241.11098 -878.81354 214.57235 -793.83891 211.75783 C -774.9543 209.01217 -776.20367 194.29826 -794.2877 195.74076 C -884.65611 197.98389 -853.06713 230.68013 -971.98088 211.83241 C -1000.9782 206.65645 -996.24463 226.39997 -973.89996 230.33452 Z " style="stroke: none; stroke-linecap: butt; stroke-width: 1; fill: rgb(72%,23%,23%); fill-rule: evenodd;"/>
						</g>
						<g transform="">
							<path d="M -882.63587 187.13598 C -881.32438 183.21171 -890.63307 176.95489 -895.85522 183.66359 C -900.6864 191.143 -902.11923 195.81946 -906.71541 201.08354 C -908.6736 203.47655 -908.95669 208.80871 -906.93235 210.3511 C -899.36404 216.54992 -900.20793 215.13528 -895.4327 225.08944 L -874.90202 223.32748 C -881.42196 214.738 -882.49907 215.49261 -885.03318 206.90311 C -886.19801 197.57607 -885.84131 196.72744 -882.63587 187.13598 Z " style="stroke: none; stroke-linecap: butt; stroke-width: 1; fill: rgb(72%,23%,23%); fill-rule: evenodd;"/>
						</g>
						<g transform="">
							<path d="M -856.84278 149.17395 C -858.91519 147.00925 -860.15235 146.24188 -863.05621 149.17395 L -878.44742 164.71467 C -879.79501 166.2151 -879.819 168.41957 -878.71098 169.68463 L -869.5414 178.51818 C -865.18778 182.77021 -864.07741 185.83222 -866.64166 190.85393 C -870.06138 200.47042 -872.62769 210.2214 -872.73822 215.56173 L -851.55732 212.07465 C -855.51676 202.25722 -855.4282 199.71731 -848.69209 190.42817 C -843.13298 184.10125 -837.759 182.65427 -842.69667 174.01094 Z " style="stroke: none; stroke-linecap: butt; stroke-width: 1; fill: rgb(72%,23%,23%); fill-rule: evenodd;"/>
						</g>
						<g transform="">
							<path d="M -834.43931 229.52922 C -836.81892 229.52955 -839.55476 229.88149 -842.42564 230.20501 C -868.40688 234.44454 -887.05761 243.86668 -930.20884 242.34563 C -936.05017 242.37523 -941.00593 245.45365 -940.80064 249.93547 C -940.38486 259.82849 -933.1005 312.1122 -932.49595 316.82415 C -931.6431 323.24171 -922.7058 323.81218 -921.52916 318.16594 C -921.31363 317.13171 -921.30776 314.20831 -921.43146 310.16985 C -920.88365 309.02633 -920.0336 308.14964 -919.12287 307.98626 L -862.14045 302.89446 C -861.5609 302.90146 -861.12633 303.43899 -860.82013 304.22454 C -861.26193 324.31793 -861.50445 343.96639 -861.07404 350.84758 C -860.95046 352.36773 -861.02264 353.96773 -859.50373 355.33393 C -855.87686 358.36753 -835.39572 356.69733 -830.09552 353.38663 C -828.62698 352.30883 -828.09562 351.80363 -827.89826 349.55657 C -830.85921 315.56484 -828.56628 272.33917 -826.29279 238.68352 C -825.69636 231.23059 -829.20413 229.5285 -834.43927 229.52922 Z M -861.41978 246.2929 C -855.76759 244.90362 -859.39775 262.12147 -861.33188 262.16985 L -920.16001 266.78118 C -925.28717 265.75698 -925.04041 253.7151 -921.58189 253.55266 C -894.94341 252.6565 -885.83814 250.37154 -861.41978 246.2929 Z M -861.54869 275.44524 C -859.84304 275.31464 -859.53116 287.82979 -861.92955 288.03122 L -919.24986 292.82809 C -923.35093 291.67744 -923.60207 280.86641 -920.02916 280.33591 Z " style="stroke: none; stroke-linecap: butt; stroke-width: 1; fill: rgb(72%,23%,23%); fill-rule: evenodd;"/>
						</g>
						<g transform="">
							<path d="M -881.54242 246.32019 L -900.77538 246.95495 L -906.06629 337.51443 C -906.81743 347.80636 -901.57434 358.12533 -894.82516 358.27723 L -876.08306 351.73073 Z " style="stroke: none; stroke-linecap: butt; stroke-width: 1; fill: rgb(72%,23%,23%); fill-rule: evenodd;"/>
						</g>
						<g transform="">
							<path d="M -942.63635 354.94033 L -941.79011 362.96793 C -887.54395 381.25153 -900.15342 354.39193 -844.89564 347.81696 L -845.53033 342.88851 C -887.7723 339.90132 -909.88302 356.06793 -942.63635 354.94033 Z " style="stroke: none; stroke-linecap: butt; stroke-width: 1; fill: rgb(72%,23%,23%); fill-rule: evenodd;"/>
						</g>
						<g transform="">
							<path d="M -947.81557 295.50699 C -952.60624 281.1578 -965.86317 283.97612 -963.38507 296.39207 C -949.48844 339.84027 -945.44334 363.88953 -943.58619 367.25073 C -932.79383 385.47923 -925.18364 380.70443 -924.50772 364.81683 C -924.39635 359.96773 -938.74208 321.32228 -947.81557 295.50699 Z " style="stroke: none; stroke-linecap: butt; stroke-width: 1; fill: rgb(72%,23%,23%); fill-rule: evenodd;"/>
						</g>
						<g transform="">
							<path d="M -990.50324 324.51204 C -998.86235 323.20798 -998.10372 333.59626 -993.81977 335.80025 C -933.97248 362.26783 -869.98147 326.93461 -815.85303 330.10929 C -813.79478 330.47834 -810.5405 331.67338 -807.55865 333.31125 C -798.00196 338.35934 -803.82472 352.82133 -808.53503 355.79003 C -830.0712 365.63493 -825.04921 355.88103 -849.20828 367.03973 C -851.48572 368.50023 -857.46545 369.63633 -859.69 368.72453 C -868.63326 365.74663 -875.99179 360.62213 -881.84012 356.06043 L -893.02859 361.70623 C -886.12315 370.30713 -875.92871 374.37783 -867.48784 378.07763 C -860.74062 381.29113 -853.36213 380.93173 -848.45893 381.08323 C -823.35091 381.42803 -799.86991 371.78613 -788.05607 370.32783 C -784.59808 369.79753 -780.57289 363.80243 -779.00556 361.01823 C -769.31413 345.14583 -773.31734 342.44799 -780.09121 325.8291 C -783.94059 319.59696 -795.07145 317.81759 -800.91871 317.02455 C -861.63639 314.45029 -939.17285 335.83631 -990.50324 324.51204 Z " style="stroke: none; stroke-linecap: butt; stroke-width: 1; fill: rgb(72%,23%,23%); fill-rule: evenodd;"/>
						</g>
					</g>
					<g transform=" matrix(0.88299,0,0,0.988169,13.1912,3.648797)">
						<g transform="">
							<path d="M 120.27793 677.75471 C 112.43943 682.43643 108.21433 683.63933 104.99404 693.52405 C 104.48335 695.12245 104.09602 701.39984 106.45232 705.70594 C 126.87404 723.58132 53.064642 762.41759 26.67829 778.76401 C 9.504086 788.82245 15.343721 800.10329 37.87099 790.21692 C 66.937311 778.13861 118.16782 764.07346 128.23654 727.71145 C 128.33394 723.72262 131.31123 722.04315 135.56746 721.09344 C 142.08176 719.66737 136.35993 693.27905 132.61631 686.40175 C 128.87267 679.52446 122.8121 676.44259 120.27793 677.75471 Z " style="stroke: none; stroke-linecap: butt; stroke-width: 1; fill: rgb(0%,0%,0%); fill-rule: evenodd;"/>
						</g>
						<g transform="">
							<path d="M 99.312378 743.71137 C 100.66932 748.35006 105.39971 760.26381 104.53619 765.25783 C 100.55834 774.38345 94.996618 777.85188 92.774891 787.56285 C 91.822959 792.90528 111.37441 809.42139 116.98937 806.81025 C 124.1617 802.46217 127.97294 793.46662 127.85483 789.42549 C 127.07652 769.99123 114.68615 756.22923 114.23843 733.85634 Z " style="stroke: none; stroke-linecap: butt; stroke-width: 1; fill: rgb(0%,0%,0%); fill-rule: evenodd;"/>
						</g>
						<g transform="">
							<path d="M 128.52177 684.93516 C 175.2681 700.45209 195.36066 668.65968 237.61925 660.45035 C 249.73626 658.09645 261.80314 662.77526 271.10095 664.61371 C 291.20962 669.1279 275.32877 696.35236 259.97897 690.02315 C 223.42084 673.88921 192.07336 698.17918 157.37359 705.77438 C 154.80744 706.18899 153.23954 703.06439 151.60039 700.94215 C 146.29034 694.06712 138.27682 699.73907 131.74167 697.59446 Z " style="stroke: none; stroke-linecap: butt; stroke-width: 1; fill: rgb(0%,0%,0%); fill-rule: evenodd;"/>
						</g>
						<g transform="">
							<path d="M 183.56224 691.9042 L 151.79708 698.82101 C 161.64729 709.63977 138.3217 752.30317 126.59407 780.2807 L 155.10089 776.43379 C 157.96458 747.31919 176.19809 720.34777 183.56224 691.9042 Z " style="stroke: none; stroke-linecap: butt; stroke-width: 1; fill: rgb(0%,0%,0%); fill-rule: evenodd;"/>
						</g>
						<g transform="">
							<path d="M 114.44574 721.80311 C 130.24524 756.69099 183.59526 707.80241 217.67836 710.62206 L 217.67836 730.04386 C 182.70681 724.3775 124.0256 765.58156 110.04349 736.75635 Z " style="stroke: none; stroke-linecap: butt; stroke-width: 1; fill: rgb(0%,0%,0%); fill-rule: evenodd;"/>
						</g>
						<g transform="">
							<path d="M 210.5717 701.26372 C 207.78623 700.79801 199.82663 708.51553 199.84531 711.31016 C 200.53437 735.79833 199.92911 759.73971 197.69856 784.22788 C 196.88998 795.69624 221.6016 786.61181 222.62354 781.17932 C 226.05893 755.54 224.58142 706.75133 222.36546 705.54131 C 218.94511 703.52774 215.63968 702.18371 210.5717 701.26372 Z " style="stroke: none; stroke-linecap: butt; stroke-width: 1; fill: rgb(0%,0%,0%); fill-rule: evenodd;"/>
						</g>
						<g transform="">
							<path d="M 112.95927 778.81549 C 222.27789 747.72743 279.1688 770.58766 282.3519 776.56108 C 284.49993 779.83881 284.03571 786.67029 281.77783 790.09219 C 262.91947 815.16905 162.15116 750.72507 116.71042 800.8005 Z " style="stroke: none; stroke-linecap: butt; stroke-width: 1; fill: rgb(0%,0%,0%); fill-rule: evenodd;"/>
						</g>
					</g>
				</g>
			</g>
		</g>
	</g>
</svg>
