<?xml version="1.0" encoding="utf-8"?>
<!DOCTYPE svg
  PUBLIC '-//W3C//DTD SVG 1.0//EN'
  'http://www.w3.org/TR/2001/REC-SVG-20010904/DTD/svg10.dtd'>
<svg fill-rule="evenodd" height="400.0" preserveAspectRatio="xMinYMin meet" version="1.0" viewBox="0 0 300 400" width="300.0" xmlns="http://www.w3.org/2000/svg" xmlns:xlink="http://www.w3.org/1999/xlink">
	<title>...</title>
	<desc>...</desc>
	<clipPath id="clip">
		<rect height="400.0" width="300.0" x="0" y="0"/>
	</clipPath>
	<g id="group" style="clip-path: url(#clip)" transform="scale(1,-1) translate(0,-400)">
		<g transform="">
			<g transform=" matrix(1,0,0,-1,0,400)">
				<g transform=" matrix(1,0,0,1,0,-652.36216)">
					<rect height="400.77808000000005" rx="40.0" ry="40.0" style="stroke: none; stroke-linecap: round; stroke-width: 10.0; fill: rgb(96%,94%,92%); fill-rule: evenodd;" width="300.05896" x="0.0" y="652.28351"/>
					<g transform=" matrix(1,0,0,1,-0,-0.000001)">
						<g transform="">
							<path d="M -4.768783 775.07096 C -9.650184 741.99485 -16.84552 674.23676 -1.278872 652.0641 C 18.998297 625.94378 233.50094 631.63117 263.31435 653.90999 C 276.21398 662.64856 70.349579 663.12124 47.099353 691.74479 C 24.390958 719.11242 0.650608 818.18718 -4.768783 775.07096 Z " style="stroke: none; stroke-linecap: butt; stroke-width: 1; fill: rgb(100%,100%,100%); fill-rule: evenodd;"/>
						</g>
					</g>
					<g transform=" matrix(-1,0,0,-1,451.93806,1977.887)">
						<g transform="">
							<path d="M 151.73588 1025.0177 C 148.40905 1015.7039 141.48745 956.56381 157.05409 934.39115 C 177.33126 908.27083 376.48967 917.93319 388.60915 924.45931 C 399.68348 929.77633 210.00549 924.51821 183.75789 959.32577 C 162.1644 989.32637 157.25703 1041.5042 151.73588 1025.0177 Z " style="stroke: none; stroke-linecap: butt; stroke-width: 1; fill: rgb(0%,0%,0%); fill-rule: evenodd; fill-opacity: 0.19607843;"/>
						</g>
					</g>
				</g>
			</g>
		</g>
		<g transform=" matrix(0.8,0,0,0.8,30,40)">
			<g transform=" matrix(1,0,0,-1,0,400)">
				<g transform=" matrix(1,0,0,1,0,-652.36216)">
					<g transform=" matrix(0.936422,0,0,0.936422,5.154253,91.360642)">
						<g transform="">
							<path d="M 29.907667 770.38167 C 23.713515 778.40432 51.33618 799.82355 71.583865 806.27337 C 78.126996 808.71242 98.413898 787.55946 90.488934 782.71611 C 68.697873 771.4298 34.310316 764.43141 29.907667 770.38167 Z " style="stroke: none; stroke-linecap: round; stroke-width: 10.0; fill: rgb(7%,15%,58%); fill-rule: evenodd;"/>
						</g>
						<g transform="">
							<path d="M 67.104158 774.19112 C 42.13506 868.07692 49.447167 858.11075 6.429507 915.85877 C -0.505486 933.44331 22.298955 948.55984 33.463664 941.83903 C 48.915156 931.49238 66.363769 919.56071 77.251814 906.15771 C 97.02135 881.82175 187.80142 814.17483 249.20824 795.20483 C 261.57471 791.38454 273.10195 791.93381 284.38934 789.49422 C 292.87302 787.08258 284.35034 774.47574 279.69085 769.70385 C 263.98582 753.15458 236.3253 743.36354 227.26563 749.88725 C 223.29064 751.85292 229.19556 779.36835 224.37421 781.95166 C 177.77646 804.75962 91.388685 863.62681 52.126086 893.76992 C 50.656571 894.45523 53.468637 888.46758 54.438309 886.52633 C 63.06443 869.25714 72.449037 820.79614 77.163288 771.48701 C 77.609435 760.40771 68.75111 764.26159 67.104158 774.19112 Z " style="stroke: none; stroke-linecap: butt; stroke-width: 1; fill: rgb(7%,15%,58%); fill-rule: evenodd;"/>
						</g>
						<g transform="">
							<path d="M 114.09719 711.59755 C 104.07802 710.53419 98.60687 720.40628 99.754434 730.06056 C 100.72766 738.24816 101.00611 748.73436 109.58655 757.62164 C 115.23331 764.61941 111.03819 817.71934 110.92954 862.62826 C 110.92154 865.77597 108.50794 866.44261 108.56194 869.47692 C 108.55174 877.3888 112.69666 897.33336 117.84037 897.49775 C 122.64465 897.26046 129.58246 889.89265 129.94269 879.3381 C 132.64911 829.34224 137.23971 763.59336 141.19891 755.18856 C 146.18743 744.59865 154.7883 747.44625 155.64906 737.33242 C 156.92146 723.17765 136.51801 714.72987 114.09717 711.59755 Z " style="stroke: none; stroke-linecap: butt; stroke-width: 1; fill: rgb(7%,15%,58%); fill-rule: evenodd;"/>
						</g>
						<g transform="">
							<path d="M 185.33231 661.72592 C 174.29129 661.72594 152.86948 692.06532 152.80843 698.44644 C 152.92552 706.64374 173.54953 714.14585 173.13439 726.35354 C 172.74322 796.01381 154.4512 907.49411 168.45064 925.71476 C 188.99078 950.25184 287.30376 927.58062 293.3955 922.56728 C 303.08922 914.62216 307.30672 906.65506 303.88707 898.61152 C 300.22208 889.75724 227.18565 909.76985 195.02929 897.91209 C 181.53056 892.9548 191.04438 797.30036 191.27753 741.11216 C 191.96233 728.32697 217.04401 713.84432 217.15674 708.23857 C 217.55641 697.35599 198.78729 663.03589 185.33231 661.72592 Z " style="stroke: none; stroke-linecap: butt; stroke-width: 1; fill: rgb(7%,15%,58%); fill-rule: evenodd;"/>
						</g>
					</g>
				</g>
			</g>
		</g>
	</g>
</svg>
