<?xml version="1.0" encoding="utf-8"?>
<!DOCTYPE svg
  PUBLIC '-//W3C//DTD SVG 1.0//EN'
  'http://www.w3.org/TR/2001/REC-SVG-20010904/DTD/svg10.dtd'>
<svg fill-rule="evenodd" height="400.0" preserveAspectRatio="xMinYMin meet" version="1.0" viewBox="0 0 300 400" width="300.0" xmlns="http://www.w3.org/2000/svg" xmlns:xlink="http://www.w3.org/1999/xlink">
	<title>...</title>
	<desc>...</desc>
	<clipPath id="clip">
		<rect height="400.0" width="300.0" x="0" y="0"/>
	</clipPath>
	<g id="group" style="clip-path: url(#clip)" transform="scale(1,-1) translate(0,-400)">
		<g transform="">
			<g transform=" matrix(1,0,0,-1,0,400)">
				<g transform=" matrix(1,0,0,1,0,-652.36216)">
					<rect height="400.77808000000005" rx="40.0" ry="40.0" style="stroke: none; stroke-linecap: round; stroke-width: 10.0; fill: rgb(96%,94%,92%); fill-rule: evenodd;" width="300.05896" x="0.0" y="652.28351"/>
					<g transform=" matrix(1,0,0,1,-0,-0.000001)">
						<g transform="">
							<path d="M -4.768783 775.07096 C -9.650184 741.99485 -16.84552 674.23676 -1.278872 652.0641 C 18.998297 625.94378 233.50094 631.63117 263.31435 653.90999 C 276.21398 662.64856 70.349579 663.12124 47.099353 691.74479 C 24.390958 719.11242 0.650608 818.18718 -4.768783 775.07096 Z " style="stroke: none; stroke-linecap: butt; stroke-width: 1; fill: rgb(100%,100%,100%); fill-rule: evenodd;"/>
						</g>
					</g>
					<g transform=" matrix(-1,0,0,-1,451.93806,1977.887)">
						<g transform="">
							<path d="M 151.73588 1025.0177 C 148.40905 1015.7039 141.48745 956.56381 157.05409 934.39115 C 177.33126 908.27083 376.48967 917.93319 388.60915 924.45931 C 399.68348 929.77633 210.00549 924.51821 183.75789 959.32577 C 162.1644 989.32637 157.25703 1041.5042 151.73588 1025.0177 Z " style="stroke: none; stroke-linecap: butt; stroke-width: 1; fill: rgb(0%,0%,0%); fill-rule: evenodd; fill-opacity: 0.19607843;"/>
						</g>
					</g>
				</g>
			</g>
		</g>
		<g transform=" matrix(0.8,0,0,0.8,30,40)">
			<g transform=" matrix(1,0,0,-1,0,400)">
				<g transform=" matrix(1,0,0,1,0,-652.36216)">
					<g transform=" matrix(0.850089,0,0,0.935386,19.53046,57.10894)">
						<g transform="">
							<path d="M 18.30334 756.6 C 8.717223 757.85345 -2.740679 745.47036 10.958971 741.94002 C 54.648905 733.49478 202.72217 710.02627 219.67401 702.97027 C 234.55599 698.49363 268.45341 722.61624 289.44552 733.79382 C 302.48073 741.41971 296.54304 750.06809 286.50777 753.96871 C 278.38308 756.41608 230.52725 760.81563 204.8946 757.72768 C 200.0049 757.22768 201.86049 745.41916 190.93917 743.72552 C 140.83486 734.41525 69.224299 750.33502 18.30334 756.6 Z " style="stroke: none; stroke-linecap: butt; stroke-width: 1; fill: rgb(9%,19%,54%); fill-rule: evenodd;"/>
						</g>
						<g transform="">
							<path d="M 202.30089 755.15533 C 201.02527 758.94399 200.37612 764.21438 197.67783 765.47262 C 192.4985 767.24932 186.74498 766.03497 183.87021 770.47346 C 179.68063 777.20502 154.05983 796.28648 136.28913 810.36623 C 131.25041 814.35841 122.73057 811.42315 122.1805 803.97976 L 122.1118 831.44414 L 134.73173 830.82034 C 145.71921 822.23148 176.01081 793.46146 189.56215 793.12407 C 200.3339 792.26914 212.80361 788.95764 215.77196 781.78505 C 218.2717 775.37761 210.85773 770.85509 211.54332 767.28077 C 212.6128 763.1041 221.47935 758.79986 224.45324 758.76689 C 229.52949 758.71059 203.56962 751.12178 202.30089 755.15533 Z " style="stroke: none; stroke-linecap: butt; stroke-width: 1; fill: rgb(9%,19%,54%); fill-rule: evenodd;"/>
						</g>
						<g transform="">
							<path d="M 44.513437 845.65221 C 96.654824 833.25125 219.71831 794.8025 237.75017 801.99454 C 260.08977 812.86559 301.29434 838.44042 301.86456 849.23669 C 302.09147 859.74102 301.96296 860.63443 293.10637 869.11082 C 279.93619 882.04169 237.75274 946.29719 231.60739 971.01652 C 230.18528 977.28804 231.16447 989.41818 226.44024 994.44462 C 219.82688 1001.8098 138.39438 993.31503 85.384416 991.21521 C 67.463407 990.61407 59.140265 972.23339 85.917462 971.67505 C 120.02266 971.06094 178.28504 969.65277 185.19288 961.18196 C 191.43171 953.22899 234.45741 863.73057 234.55749 854.09122 C 234.66298 848.04554 223.82191 833.8813 217.3644 829.79724 C 209.48253 824.22682 98.976977 857.82795 49.786453 864.81615 Z " style="stroke: none; stroke-linecap: butt; stroke-width: 1; fill: rgb(9%,19%,54%); fill-rule: evenodd;"/>
						</g>
						<g transform="">
							<path d="M 22.789896 858.99298 C 36.704103 885.89898 66.699632 935.57757 78.680214 983.50814 L 110.76399 981.38175 C 102.82771 945.31445 83.44735 884.02726 64.641487 853.9626 C 30.77162 800.25976 -5.526287 807.3679 22.789896 858.99298 Z " style="stroke: none; stroke-linecap: butt; stroke-width: 1; fill: rgb(9%,19%,54%); fill-rule: evenodd;"/>
						</g>
						<g transform="">
							<path d="M 121.1644 783.92288 C 117.95178 768.37828 105.66935 771.00749 107.57731 787.41974 L 126.04114 980.81251 L 140.18447 980.11314 Z " style="stroke: none; stroke-linecap: butt; stroke-width: 1; fill: rgb(9%,19%,54%); fill-rule: evenodd;"/>
						</g>
						<g transform="">
							<path d="M 189.6572 785.11604 L 176.33295 785.11604 L 151.20553 976.99434 L 164.12565 976.99434 Z " style="stroke: none; stroke-linecap: butt; stroke-width: 1; fill: rgb(9%,19%,54%); fill-rule: evenodd;"/>
						</g>
					</g>
				</g>
			</g>
		</g>
	</g>
</svg>
