<?xml version="1.0" encoding="utf-8"?>
<!DOCTYPE svg
  PUBLIC '-//W3C//DTD SVG 1.0//EN'
  'http://www.w3.org/TR/2001/REC-SVG-20010904/DTD/svg10.dtd'>
<svg fill-rule="evenodd" height="400.0" preserveAspectRatio="xMinYMin meet" version="1.0" viewBox="0 0 300 400" width="300.0" xmlns="http://www.w3.org/2000/svg" xmlns:xlink="http://www.w3.org/1999/xlink">
	<title>...</title>
	<desc>...</desc>
	<clipPath id="clip">
		<rect height="400.0" width="300.0" x="0" y="0"/>
	</clipPath>
	<g id="group" style="clip-path: url(#clip)" transform="scale(1,-1) translate(0,-400)">
		<g transform="">
			<g transform=" matrix(1,0,0,-1,0,400)">
				<g transform=" matrix(1,0,0,1,0,-652.36216)">
					<rect height="400.77808000000005" rx="40.0" ry="40.0" style="stroke: none; stroke-linecap: round; stroke-width: 10.0; fill: rgb(96%,94%,92%); fill-rule: evenodd;" width="300.05896" x="0.0" y="652.28351"/>
					<g transform=" matrix(1,0,0,1,-0,-0.000001)">
						<g transform="">
							<path d="M -4.768783 775.07096 C -9.650184 741.99485 -16.84552 674.23676 -1.278872 652.0641 C 18.998297 625.94378 233.50094 631.63117 263.31435 653.90999 C 276.21398 662.64856 70.349579 663.12124 47.099353 691.74479 C 24.390958 719.11242 0.650608 818.18718 -4.768783 775.07096 Z " style="stroke: none; stroke-linecap: butt; stroke-width: 1; fill: rgb(100%,100%,100%); fill-rule: evenodd;"/>
						</g>
					</g>
					<g transform=" matrix(-1,0,0,-1,451.93806,1977.887)">
						<g transform="">
							<path d="M 151.73588 1025.0177 C 148.40905 1015.7039 141.48745 956.56381 157.05409 934.39115 C 177.33126 908.27083 376.48967 917.93319 388.60915 924.45931 C 399.68348 929.77633 210.00549 924.51821 183.75789 959.32577 C 162.1644 989.32637 157.25703 1041.5042 151.73588 1025.0177 Z " style="stroke: none; stroke-linecap: butt; stroke-width: 1; fill: rgb(0%,0%,0%); fill-rule: evenodd; fill-opacity: 0.19607843;"/>
						</g>
					</g>
				</g>
			</g>
		</g>
		<g transform=" matrix(0.8,0,0,0.8,30,40)">
			<g transform=" matrix(1,0,0,-1,0,400)">
				<g transform=" matrix(1,0,0,1,0,-652.36216)">
					<g transform=" matrix(0.9007,0,0,0.97529,22.480539,21.079387)">
						<g transform="">
							<path d="M 233.62512 755.29109 C 178.13441 766.77996 64.370638 790.79873 58.640429 785.71129 C 42.658218 774.8367 25.686157 781.4533 35.789288 796.11051 C 52.029352 823.69088 76.872008 849.06318 88.843464 878.95456 C 91.131741 883.28912 93.421697 883.96408 95.709975 883.9308 C 130.60403 884.52858 155.32699 876.79384 188.66968 873.93052 C 193.91616 873.42467 200.85 879.12765 204.74745 877.42476 C 208.19956 875.54447 209.63614 868.85815 210.54635 864.66603 C 217.4049 839.25058 238.59859 816.98927 250.44252 791.95275 C 251.94755 788.95797 260.28757 788.40304 260.2247 785.51247 C 259.00553 774.69584 242.9212 754.80687 233.62512 755.29109 Z M 210.48568 788.87004 C 222.94757 788.56515 210.08712 813.91537 204.98408 814.98048 C 199.29967 815.81553 198.39363 807.67801 191.42741 807.53455 C 186.19349 808.08336 187.38414 811.46561 181.98836 813.07549 C 149.06789 819.54028 124.93601 821.83582 90.58688 825.21146 C 86.254323 825.32087 75.521669 807.98953 81.572922 806.581 C 122.51354 796.64377 191.35693 789.13698 210.48568 788.87004 Z M 194.0965 838.89685 C 198.11045 845.76449 191.25248 852.6967 186.28733 853.46044 C 156.09402 857.97546 108.0337 865.60753 104.28066 861.69135 C 101.61187 858.84701 96.198123 850.71218 97.058818 845.15342 C 108.19507 841.43786 189.35907 830.72916 194.0965 838.89685 Z " style="stroke: none; stroke-linecap: butt; stroke-width: 1; fill: rgb(7%,15%,58%); fill-rule: evenodd;"/>
						</g>
						<g transform="">
							<path d="M 123.10112 656.13043 C 104.73047 648.72957 102.72923 661.96259 105.19817 670.4689 C 111.41167 690.67033 119.6267 699.10097 129.73669 713.14675 C 131.54184 715.56453 133.54553 720.20554 133.24165 722.41743 L 130.43848 930.01433 C 130.46298 936.51277 129.21457 957.06954 125.10135 953.82796 C 108.84428 941.47057 103.93049 934.53523 77.856739 902.28195 C 66.715728 887.35313 57.968103 895.33785 71.491167 914.87323 C 113.95056 969.49714 117.57029 974.70731 118.19778 1029.9801 C 119.82158 1059.1589 149.95633 1054.6287 152.76988 1036.1184 C 156.19942 1016.1466 151.12254 984.33522 150.92 962.3566 C 150.14567 878.32896 150.06075 804.0185 163.76541 722.82316 C 166.35926 710.15636 186.75542 699.75702 197.74017 696.11221 C 202.60624 694.49257 208.02715 682.13804 198.64045 681.65992 C 173.46067 679.01114 146.35744 666.10876 123.10112 656.13043 Z " style="stroke: none; stroke-linecap: butt; stroke-width: 1; fill: rgb(7%,15%,58%); fill-rule: evenodd;"/>
						</g>
						<g transform="">
							<path d="M 90.058998 749.95518 C 61.560587 748.64774 82.651228 765.7424 89.055646 765.31007 C 124.52508 762.08771 182.99027 753.64556 219.15835 745.42026 C 221.66066 745.34196 218.96727 728.23033 201.81996 726.5012 C 196.60711 726.24636 197.50313 729.10235 191.34053 731.33626 C 163.70795 737.33853 115.18501 751.55692 90.058998 749.95518 Z " style="stroke: none; stroke-linecap: butt; stroke-width: 1; fill: rgb(7%,15%,58%); fill-rule: evenodd;"/>
						</g>
						<g transform="">
							<path d="M 101.07932 860.47476 C 81.038575 899.28326 62.611644 913.1005 1.982574 939.28575 C -21.477214 948.67859 -19.805065 962.93934 8.627237 953.18208 C 85.796234 923.19531 101.97857 904.47533 114.56321 868.12926 Z " style="stroke: none; stroke-linecap: butt; stroke-width: 1; fill: rgb(7%,15%,58%); fill-rule: evenodd;"/>
						</g>
						<g transform="">
							<path d="M 148.90381 861.23655 C 173.71566 890.17528 207.64784 968.18908 226.46346 956.60352 C 241.31658 947.06331 260.41333 945.9357 268.52993 948.12183 C 279.15295 950.92054 279.66368 955.87648 285.60974 959.0915 C 301.24463 965.6797 297.97423 957.07076 292.54704 949.49694 C 278.5036 927.89734 211.97595 914.82867 170.23669 856.92613 Z " style="stroke: none; stroke-linecap: butt; stroke-width: 1; fill: rgb(7%,15%,58%); fill-rule: evenodd;"/>
						</g>
					</g>
				</g>
			</g>
		</g>
	</g>
</svg>
